<svg width="64" height="64" viewBox="0 0 64 64" fill="none" xmlns="http://www.w3.org/2000/svg">
<path d="M32.0009 8.87988C29.8916 8.87988 26.5714 9.38323 23.663 11.3532C22.2927 12.2814 21.0342 13.5528 20.0838 15.2236C19.4919 14.3221 18.7605 13.6658 17.9496 13.2276C16.6511 12.526 15.2267 12.3569 13.8543 12.3005C12.482 12.2441 11.1396 12.2977 9.9821 12.1605C8.82462 12.025 7.8971 11.7276 7.16777 11.04C6.91615 10.8035 6.55407 10.7221 6.22598 10.8298C5.89622 10.9387 5.6545 11.2197 5.59381 11.5616C5.59381 11.5616 5.14507 14.073 5.92003 17.0096C6.60257 19.596 8.3087 22.5889 11.9763 24.4537C9.97754 26.0837 8.33319 28.538 7.72253 32.0027C4.61419 33.9446 2.75164 36.339 2.75 38.9861C2.74996 40.8782 3.70897 42.6294 5.26575 44.1134C6.53642 45.3247 8.21593 46.3937 10.2254 47.3239C11.2392 49.3171 13.0528 51.2794 16.2779 52.6946C19.6714 54.1837 24.6099 55.12 32.0009 55.12C39.3919 55.12 44.3286 54.1837 47.7221 52.6946C50.9471 51.2794 52.7608 49.3171 53.7746 47.3239C55.7841 46.3937 57.4654 45.3247 58.7361 44.1134C60.2929 42.6294 61.25 40.8782 61.25 38.9861C61.2472 36.3377 59.3887 33.9413 56.2775 31.999C55.6662 28.5357 54.024 26.0812 52.0256 24.4518C55.6916 22.587 57.3976 19.5955 58.08 17.0096C58.8549 14.073 58.408 11.5616 58.408 11.5616C58.3473 11.2199 58.1038 10.9384 57.774 10.8298C57.4439 10.7193 57.0798 10.8013 56.8267 11.04C56.0974 11.7276 55.1698 12.0249 54.0124 12.1605C51.2977 12.4079 48.3008 12.0463 46.043 13.2276C45.2325 13.6656 44.504 14.321 43.9143 15.2218C42.9641 13.552 41.7083 12.2811 40.3388 11.3532C37.4311 9.383 34.1102 8.87988 32.0009 8.87988H32.0009ZM32.0009 10.7671C33.7964 10.7671 36.812 11.2427 39.2791 12.9143C41.5689 14.4658 43.4693 16.9791 43.7559 21.3923C43.4362 21.3696 43.1333 21.3636 42.8528 21.3636C40.0869 21.3636 35.1495 22.2381 31.9917 26.1353C31.252 25.2202 30.411 24.4647 29.5202 23.8574C26.604 21.869 23.2644 21.3636 21.1472 21.3636C20.8673 21.3636 20.5649 21.375 20.246 21.3923C20.5323 16.9786 22.4306 14.4657 24.7209 12.9143C27.1885 11.2429 30.2052 10.7671 32.0009 10.7671ZM32.0009 11.7089C31.479 11.7098 31.0571 12.1344 31.0591 12.6562C31.061 13.1752 31.4819 13.5952 32.0009 13.5962C32.0009 13.5962 34.0462 13.6188 35.9432 14.4384C36.4236 14.6485 36.9831 14.4271 37.1891 13.9445C37.3955 13.4656 37.1741 12.9101 36.6952 12.7042C34.3595 11.6922 32.0009 11.7089 32.0009 11.7089ZM7.52901 13.1004C9.46022 14.3483 11.6982 14.1088 13.7769 14.1878C15.0424 14.24 16.1724 14.405 17.0594 14.8845C17.893 15.335 18.5826 16.0404 19.0996 17.4371C18.7755 18.4024 18.5425 19.4673 18.4195 20.6348C18.1148 20.1371 17.7077 19.5626 17.1884 18.9871C17.2244 18.3082 17.1486 17.5673 17.1 17.0095C17.054 16.493 16.5995 16.1101 16.0826 16.1525C15.5631 16.1984 15.181 16.656 15.2274 17.1754C15.2312 17.2194 15.235 17.2661 15.2385 17.3137C14.6033 16.9032 13.8792 16.5474 13.06 16.2908C12.5659 16.1383 12.0404 16.4121 11.8823 16.9046C11.7256 17.4028 12.0047 17.9345 12.5034 18.0896C13.2961 18.3379 13.9775 18.708 14.5603 19.1346C14.0915 19.1431 13.6909 19.4989 13.6387 19.9769C13.5835 20.4916 13.9538 20.9545 14.4681 21.0145L16.5692 21.2467C16.738 21.4956 16.8778 21.73 16.9931 21.936C15.9544 22.2216 14.8728 22.6332 13.8194 23.2151C9.90529 21.6559 8.38591 18.9584 7.74469 16.5285C7.40593 15.3965 7.42459 14.1778 7.52902 13.1004H7.52901ZM56.471 13.1004C56.5423 13.8328 56.7451 14.6729 56.2554 16.5285C55.6142 18.9581 54.0954 21.6558 50.1825 23.2151C49.1285 22.6329 48.0461 22.2215 47.007 21.936C47.1223 21.7299 47.2638 21.4959 47.4327 21.2467L49.5264 21.0145C50.0435 20.9581 50.4182 20.4941 50.3632 19.9769C50.3109 19.4983 49.9093 19.1413 49.4398 19.1345C50.0225 18.7079 50.7058 18.3379 51.4985 18.0896C51.9973 17.9346 52.2745 17.4028 52.1177 16.9045C51.9597 16.4085 51.4289 16.1334 50.9327 16.2907C50.1164 16.5464 49.3965 16.9013 48.7634 17.3099C48.7674 17.264 48.7708 17.2184 48.7745 17.1756C48.8209 16.6561 48.4369 16.1987 47.9174 16.1527C47.398 16.1063 46.9386 16.4905 46.8927 17.0098C46.844 17.5666 46.7743 18.3057 46.8116 18.9837C46.2914 19.5604 45.8852 20.1362 45.5805 20.635C45.4573 19.467 45.2249 18.403 44.9004 17.4374C45.4174 16.0407 46.1089 15.3352 46.9425 14.8847C49.3185 13.8376 51.9008 14.2953 54.2354 14.0351C55.0742 13.8792 55.8795 13.6188 56.471 13.1007L56.471 13.1004ZM39.104 14.6652C38.8771 14.651 38.6526 14.719 38.4718 14.8568C38.0584 15.1692 37.9745 15.7569 38.2839 16.1727C38.3623 16.2765 38.4372 16.3887 38.5069 16.5008C38.7837 16.9439 39.3678 17.0777 39.8099 16.7994C40.2484 16.523 40.3818 15.9442 40.1085 15.5037C40.0077 15.3418 39.9071 15.1852 39.7951 15.0374C39.6298 14.8189 39.3775 14.6829 39.104 14.6651V14.6652ZM21.1472 23.2501C22.9498 23.2501 25.9815 23.731 28.4549 25.4174C30.9283 27.1039 32.9409 29.9188 32.9409 35.051C32.9409 35.7617 32.8082 36.8761 31.8406 37.9759C30.9712 38.9641 29.3652 39.9936 26.3373 40.5507V39.1187C29.0565 38.2309 31.0591 36.8023 31.0591 34.1793C31.0591 30.1293 29.312 27.5161 27.1943 26.0718C25.0766 24.6274 22.6839 24.2674 21.1472 24.2674C19.6106 24.2674 17.2198 24.6274 15.1021 26.0718C12.9844 27.5161 11.2427 30.1293 11.2427 34.1793C11.2427 34.7976 11.3585 35.7803 12.0076 36.7633C12.5375 37.5656 13.6973 38.2269 15.0173 38.798V40.3516C12.4573 39.7378 11.0901 38.7638 10.336 37.8378C9.47961 36.7861 9.35362 35.7316 9.35362 35.051C9.35362 29.9188 11.3662 27.1039 13.8396 25.4174C16.313 23.731 19.3447 23.2501 21.1472 23.2501ZM42.8528 23.2501C44.6553 23.2501 47.687 23.731 50.1604 25.4174C52.6338 27.1039 54.6464 29.9188 54.6464 35.051C54.6464 35.8743 54.4898 37.2365 53.0171 38.4994C51.5445 39.7623 48.6032 40.9666 42.8528 40.9654C37.9282 40.9663 35.0668 40.0833 33.4201 39.0357C34.6197 37.5644 34.8282 35.9926 34.8282 35.051C34.8282 32.0714 34.1624 29.6732 33.1049 27.7803C35.7372 24.1259 40.392 23.2501 42.8528 23.2501ZM43.3264 23.9818C42.8053 23.9799 42.3811 24.4005 42.3791 24.9217C42.38 25.4435 42.8045 25.8655 43.3264 25.8634C43.3264 25.8634 45.3717 25.8862 47.2687 26.7058C47.7476 26.9121 48.3031 26.6916 48.5091 26.2118C48.7163 25.7349 48.4989 25.1803 48.0225 24.9715C45.6869 23.9595 43.3264 23.9818 43.3264 23.9818ZM16.9121 38.4588C16.9574 38.0112 16.6805 37.5938 16.2505 37.4616C14.7002 36.9788 13.9732 36.3173 13.5836 35.7274C13.194 35.1374 13.1302 34.5698 13.1302 34.1811C13.1302 30.6457 14.4925 28.7752 16.1675 27.6328C17.8425 26.4903 19.9257 26.1565 21.1473 26.1556C22.3689 26.1547 24.4595 26.4901 26.1345 27.6328C27.8095 28.7752 29.1719 30.644 29.1719 34.1793C29.1719 36.3516 26.7476 37.3245 25.1946 37.6829C24.7611 37.7765 24.4513 38.1592 24.45 38.6026V41.439C24.45 42.2395 23.835 42.8526 23.0345 42.8526C22.2467 42.8526 21.6405 42.2518 21.6209 41.4723C21.5794 40.2417 19.7463 40.2632 19.7336 41.4949V43.3269C19.7336 44.1273 19.1205 44.7423 18.32 44.7423C17.5195 44.7423 16.9046 44.1273 16.9046 43.3269L16.9121 38.4588ZM50.424 26.9325C50.197 26.9183 49.9726 26.9863 49.7918 27.1241C49.3755 27.439 49.2938 28.0317 49.6093 28.4474C49.6878 28.5511 49.7626 28.656 49.8323 28.768C50.1092 29.2111 50.6933 29.3449 51.1354 29.0665C51.5746 28.7904 51.7088 28.2119 51.4358 27.7708C51.335 27.609 51.227 27.4524 51.1151 27.3046C50.9497 27.086 50.6975 26.95 50.424 26.9322L50.424 26.9325ZM8.87421 39.0284C9.98265 40.3896 11.8913 41.6071 15.0171 42.2813V43.3263C15.0171 45.1397 16.5064 46.6272 18.3198 46.6272C19.8561 46.6272 20.9595 45.4652 21.3221 44.0359C21.8419 44.3772 22.371 44.74 23.0343 44.74C24.4797 44.74 25.7186 43.7935 26.1619 42.4915C28.8045 42.0681 30.6833 41.2956 31.9989 40.3535C34.0249 41.8114 37.3605 42.8537 42.8525 42.8526C48.8651 42.8536 52.2938 41.6035 54.2499 39.9259C55.84 38.4721 56.5218 36.4552 56.524 34.4612C58.4588 35.9556 59.3663 37.5235 59.3678 38.986C59.3678 40.2457 58.7408 41.5006 57.4326 42.7476C56.1244 43.9947 54.1482 45.1796 51.6639 46.1811C46.6953 48.1845 39.715 49.4563 32.0005 49.4563C24.2859 49.4563 17.3038 48.1845 12.3352 46.1811C9.85094 45.1796 7.87657 43.9947 6.56834 42.7476C5.26011 41.5006 4.63129 40.2457 4.6313 38.986C4.63222 37.5232 5.54003 35.9556 7.47512 34.4612C7.35335 36.3493 8.04514 37.9761 8.87421 39.0284ZM31.9475 42.6407C31.5395 42.6265 31.1676 42.8731 31.026 43.2563C30.8448 43.7449 31.094 44.2878 31.5826 44.469C31.5826 44.469 37.3517 46.6806 41.9405 46.2863C42.4596 46.2403 42.8433 45.7824 42.7975 45.2633C42.7516 44.7466 42.2972 44.3637 41.7801 44.4063C37.9672 44.7341 32.2368 42.6997 32.2368 42.6997C32.1441 42.664 32.0464 42.6452 31.9475 42.6407H31.9475ZM13.4304 48.5975C18.4873 50.3238 24.9466 51.3436 32.0009 51.3436C39.0552 51.3436 45.5127 50.3238 50.5696 48.5975C49.7249 49.4569 48.5802 50.261 46.9701 50.9676C43.9323 52.3005 39.2318 53.2308 32.0009 53.2308C24.7701 53.2308 20.0695 52.3005 17.0317 50.9676C15.4217 50.261 14.2751 49.4569 13.4304 48.5975Z" fill="#000"/>
</svg>
