<svg width="65" height="53" viewBox="0 0 65 53" fill="none" xmlns="http://www.w3.org/2000/svg">
<mask id="path-1-inside-1_81_29" fill="white">
<path fill-rule="evenodd" clip-rule="evenodd" d="M13.4505 16.0603C6.02199 16.0603 0 22.0823 0 29.5108C0 31.8437 0.593946 34.038 1.63887 35.9505C1.6597 35.9886 1.63221 36.0353 1.58877 36.0353V36.0353C1.54683 36.0353 1.51928 36.0791 1.53743 36.1169L8.47922 50.5773C9.56842 52.8462 12.799 52.8462 13.8882 50.5773L16.7274 44.663C17.2267 43.6229 18.2782 42.9613 19.4319 42.9613H28.7995C36.228 42.9613 42.25 36.9393 42.25 29.5108C42.25 22.0823 36.228 16.0603 28.7995 16.0603H13.4505Z"/>
</mask>
<path d="M16.7274 44.663L14.9244 43.7974L16.7274 44.663ZM8.47922 50.5773L10.2822 49.7117L8.47922 50.5773ZM1.53743 36.1169L3.34044 35.2513L1.53743 36.1169ZM1.63887 35.9505L3.394 34.9916L1.63887 35.9505ZM2 29.5108C2 23.1869 7.12656 18.0603 13.4505 18.0603V14.0603C4.91742 14.0603 -2 20.9777 -2 29.5108H2ZM3.394 34.9916C2.5057 33.3657 2 31.5003 2 29.5108H-2C-2 32.1872 -1.31781 34.7102 -0.116251 36.9094L3.394 34.9916ZM10.2822 49.7117L3.34044 35.2513L-0.265578 36.9824L6.67621 51.4428L10.2822 49.7117ZM14.9244 43.7974L12.0852 49.7117L15.6912 51.4428L18.5304 45.5285L14.9244 43.7974ZM28.7995 40.9613H19.4319V44.9613H28.7995V40.9613ZM40.25 29.5108C40.25 35.8347 35.1234 40.9613 28.7995 40.9613V44.9613C37.3326 44.9613 44.25 38.0439 44.25 29.5108H40.25ZM28.7995 18.0603C35.1234 18.0603 40.25 23.1869 40.25 29.5108H44.25C44.25 20.9777 37.3326 14.0603 28.7995 14.0603V18.0603ZM13.4505 18.0603H28.7995V14.0603H13.4505V18.0603ZM18.5304 45.5285C18.6969 45.1818 19.0474 44.9613 19.4319 44.9613V40.9613C17.5091 40.9613 15.7566 42.064 14.9244 43.7974L18.5304 45.5285ZM6.67621 51.4428C8.49155 55.2243 13.8759 55.2243 15.6912 51.4428L12.0852 49.7117C11.7222 50.468 10.6453 50.468 10.2822 49.7117L6.67621 51.4428ZM1.58877 34.0353C0.0740695 34.0353 -0.921079 35.6169 -0.265578 36.9824L3.34044 35.2513C3.95964 36.5412 3.0196 38.0353 1.58877 38.0353V34.0353ZM-0.116251 36.9094C-0.818408 35.6243 0.102651 34.0353 1.58877 34.0353V38.0353C3.16176 38.0353 4.1378 36.353 3.394 34.9916L-0.116251 36.9094Z" fill="#000" mask="url(#path-1-inside-1_81_29)"/>
<mask id="path-3-inside-2_81_29" fill="white">
<path fill-rule="evenodd" clip-rule="evenodd" d="M54.7662 0C60.4182 0 65 4.58182 65 10.2338C65 11.989 64.5581 13.641 63.7795 15.0847C63.752 15.1356 63.7887 15.1979 63.8466 15.1979V15.1979C63.9014 15.1979 63.9381 15.2541 63.9162 15.3042L60.0065 24.2548C58.9587 26.6537 55.556 26.6537 54.5082 24.2548L53.6397 22.2667C53.1624 21.1739 52.0831 20.4675 50.8906 20.4675H45.9838C40.3318 20.4675 35.75 15.8857 35.75 10.2338C35.75 4.58182 40.3318 0 45.9838 0H54.7662Z"/>
</mask>
<path d="M54.5082 24.2548L56.341 23.4542L54.5082 24.2548ZM63.9162 15.3042L65.749 16.1048L63.9162 15.3042ZM63 10.2338C63 5.68639 59.3136 2 54.7662 2V-2C61.5228 -2 67 3.47725 67 10.2338H63ZM62.0192 14.1353C62.6444 12.9761 63 11.6495 63 10.2338H67C67 12.3286 66.4719 14.3059 65.5398 16.0341L62.0192 14.1353ZM58.1737 23.4542L62.0834 14.5037L65.749 16.1048L61.8393 25.0554L58.1737 23.4542ZM55.4725 21.4661L56.341 23.4542L52.6754 25.0554L51.807 23.0673L55.4725 21.4661ZM45.9838 18.4675H50.8906V22.4675H45.9838V18.4675ZM37.75 10.2338C37.75 14.7812 41.4364 18.4675 45.9838 18.4675V22.4675C39.2272 22.4675 33.75 16.9903 33.75 10.2338H37.75ZM45.9838 2C41.4364 2 37.75 5.68639 37.75 10.2338H33.75C33.75 3.47725 39.2272 -2 45.9838 -2V2ZM54.7662 2H45.9838V-2H54.7662V2ZM51.807 23.0673C51.6478 22.703 51.2881 22.4675 50.8906 22.4675V18.4675C52.8781 18.4675 54.6769 19.6447 55.4725 21.4661L51.807 23.0673ZM61.8393 25.0554C60.0929 29.0535 54.4218 29.0535 52.6754 25.0554L56.341 23.4542C56.6902 24.2539 57.8244 24.2539 58.1737 23.4542L61.8393 25.0554ZM63.8466 13.1979C65.3432 13.1979 66.348 14.7334 65.749 16.1048L62.0834 14.5037C61.5282 15.7747 62.4596 17.1979 63.8466 17.1979V13.1979ZM65.5398 16.0341C66.2211 14.7708 65.3234 13.1979 63.8466 13.1979V17.1979C62.254 17.1979 61.2829 15.5005 62.0192 14.1353L65.5398 16.0341Z" fill="#000" mask="url(#path-3-inside-2_81_29)"/>
<ellipse cx="45.0938" cy="10.0377" rx="2.03125" ry="2.00754" fill="#000"/>
<ellipse cx="50.7812" cy="10.0377" rx="2.03125" ry="2.00754" fill="#000"/>
<ellipse cx="56.4688" cy="10.0377" rx="2.03125" ry="2.00754" fill="#000"/>
<ellipse cx="13" cy="32.1206" rx="2.4375" ry="2.40904" fill="#000"/>
<ellipse cx="20.3125" cy="32.1206" rx="2.4375" ry="2.40904" fill="#000"/>
<ellipse cx="27.625" cy="32.1206" rx="2.4375" ry="2.40904" fill="#000"/>
</svg>
