<svg width="70" height="70" viewBox="0 0 70 70" fill="none" xmlns="http://www.w3.org/2000/svg">
<path d="M64.225 60.9583L58.6134 51.2516C60.0355 48.7621 60.4651 45.8273 59.8161 43.0346C59.1672 40.2419 57.4876 37.7973 55.1134 36.1899V11.5499C55.1134 10.8259 54.8257 10.1315 54.3138 9.61954C53.8018 9.10757 53.1074 8.81995 52.3834 8.81995H13.44C13.0821 8.81994 12.7276 8.89064 12.3971 9.02798C12.0665 9.16532 11.7663 9.36659 11.5137 9.62025C11.2612 9.87391 11.0612 10.175 10.9253 10.5061C10.7893 10.8373 10.7202 11.192 10.7217 11.5499V58.0416C10.7217 58.7626 11.0081 59.454 11.5179 59.9638C12.0277 60.4735 12.7191 60.7599 13.44 60.7599H33.3317L33.215 60.9583C33.0991 61.1437 33.0377 61.358 33.0377 61.5766C33.0377 61.7953 33.0991 62.0095 33.215 62.1949C33.3388 62.3844 33.5149 62.5339 33.7221 62.625C33.9292 62.7162 34.1584 62.7451 34.3817 62.7083L38.01 62.2416L39.4217 65.6133C39.5061 65.8136 39.6447 65.9863 39.822 66.1121C39.9992 66.2378 40.2081 66.3116 40.425 66.3249H40.495C40.7006 66.3258 40.9028 66.2722 41.081 66.1698C41.2592 66.0674 41.4072 65.9196 41.51 65.7416L46.6667 56.8283C47.348 56.9543 48.0389 57.0207 48.7317 57.0266C49.4283 57.0201 50.1231 56.9537 50.8084 56.8283L56 65.7416C56.1028 65.9196 56.2508 66.0674 56.4291 66.1698C56.6073 66.2722 56.8095 66.3258 57.015 66.3249H57.085C57.302 66.3116 57.5108 66.2378 57.6881 66.1121C57.8654 65.9863 58.004 65.8136 58.0884 65.6133L59.5 62.2416L63.1284 62.7083C63.346 62.739 63.5679 62.7076 63.7685 62.6177C63.9691 62.5278 64.1402 62.3831 64.2621 62.2002C64.384 62.0173 64.4518 61.8037 64.4576 61.584C64.4634 61.3643 64.4071 61.1474 64.295 60.9583H64.225ZM13.44 58.4266C13.3379 58.4266 13.24 58.386 13.1678 58.3138C13.0956 58.2416 13.055 58.1437 13.055 58.0416V11.5499C13.055 11.4467 13.0952 11.3476 13.1671 11.2735C13.2389 11.1994 13.3369 11.1563 13.44 11.1533H52.36C52.4652 11.1533 52.5661 11.1951 52.6405 11.2695C52.7149 11.3439 52.7567 11.4447 52.7567 11.5499V34.9999C51.7359 34.6072 50.6626 34.3674 49.5717 34.2883V15.5049C49.5717 15.1955 49.4488 14.8988 49.23 14.68C49.0112 14.4612 48.7145 14.3383 48.405 14.3383H17.395C17.0856 14.3383 16.7889 14.4612 16.5701 14.68C16.3513 14.8988 16.2284 15.1955 16.2284 15.5049V54.0749C16.2284 54.3844 16.3513 54.6811 16.5701 54.8999C16.7889 55.1187 17.0856 55.2416 17.395 55.2416H36.5167L34.6734 58.4266H13.44ZM37.3334 45.6283C37.3347 47.6006 37.8493 49.5385 38.8267 51.2516L37.8584 52.9083H18.5617V16.6716H47.2384V34.3466C44.502 34.7107 41.9904 36.0545 40.1691 38.129C38.3478 40.2034 37.3403 42.8678 37.3334 45.6283ZM40.6467 62.5449L39.8067 60.5266C39.7099 60.3026 39.5453 60.1145 39.336 59.9889C39.1267 59.8634 38.8833 59.8066 38.64 59.8266L36.47 60.0949L40.39 53.3049C41.4851 54.5228 42.8302 55.4898 44.3334 56.1399L40.6467 62.5449ZM39.6667 45.6283C39.669 43.8382 40.2019 42.089 41.1981 40.6017C42.1943 39.1144 43.6091 37.9558 45.2635 37.2724C46.918 36.589 48.738 36.4114 50.4934 36.762C52.2488 37.1126 53.8609 37.9758 55.1258 39.2424C56.3908 40.509 57.2519 42.1222 57.6003 43.878C57.9486 45.6339 57.7687 47.4536 57.0831 49.1072C56.3975 50.7608 55.2371 52.174 53.7486 53.1683C52.26 54.1626 50.5101 54.6933 48.72 54.6933C46.3179 54.6902 44.0151 53.7338 42.3177 52.0341C40.6202 50.3344 39.6667 48.0304 39.6667 45.6283ZM58.8584 59.8266C58.6058 59.7935 58.3493 59.8441 58.1281 59.9705C57.9069 60.0969 57.7331 60.2922 57.6334 60.5266L56.7934 62.5449L53.095 56.1399C54.6443 55.506 56.0346 54.538 57.1667 53.3049L61.0867 60.0949L58.8584 59.8266Z" fill="#000"/>
<path d="M54.3317 43.015L51.4967 42L49.6417 39.6667C49.5323 39.5325 49.3944 39.4244 49.238 39.3501C49.0816 39.2758 48.9107 39.2373 48.7376 39.2373C48.5644 39.2373 48.3935 39.2758 48.2371 39.3501C48.0807 39.4244 47.9428 39.5325 47.8334 39.6667L45.9784 42L43.1667 43.015C43.0001 43.0754 42.8493 43.173 42.726 43.3003C42.6027 43.4277 42.51 43.5815 42.4551 43.75C42.3996 43.9187 42.3834 44.0978 42.4077 44.2737C42.4319 44.4496 42.496 44.6176 42.5951 44.765L44.2984 47.2617L44.3334 50.2833C44.3383 50.4615 44.384 50.6361 44.4669 50.7939C44.5498 50.9516 44.6678 51.0883 44.8117 51.1934C44.9562 51.2983 45.1229 51.3686 45.2989 51.3989C45.4748 51.4293 45.6554 51.4188 45.8267 51.3683L48.7201 50.5167L51.6251 51.3683C51.7332 51.3862 51.8436 51.3862 51.9517 51.3683C52.1949 51.3668 52.4314 51.2893 52.6284 51.1467C52.7745 51.0428 52.8947 50.9067 52.9797 50.7489C53.0646 50.5911 53.1121 50.4158 53.1184 50.2367L53.2001 47.215L54.9034 44.7184C55.0044 44.5719 55.0705 44.4043 55.0968 44.2284C55.1231 44.0525 55.1088 43.8729 55.0551 43.7033C54.9929 43.5422 54.8958 43.3969 54.7708 43.2779C54.6457 43.1589 54.4957 43.0691 54.3317 43.015ZM51.0884 46.235C50.961 46.4169 50.8881 46.6315 50.8784 46.8533V48.7084L49.0001 48.1833C48.7867 48.1211 48.5601 48.1211 48.3467 48.1833L46.6667 48.7084L46.6084 46.8533C46.5987 46.6315 46.5258 46.4169 46.3984 46.235L45.3601 44.695L47.0984 44.0767C47.3081 43.9979 47.4932 43.865 47.6351 43.6917L48.8017 42.2217L49.9684 43.6917C50.1103 43.865 50.2954 43.9979 50.5051 44.0767L52.2434 44.695L51.0884 46.235Z" fill="#000"/>
<path d="M38.1618 20.1833H27.6618C27.3524 20.1833 27.0556 20.3063 26.8368 20.5251C26.618 20.7439 26.4951 21.0406 26.4951 21.35C26.4951 21.6594 26.618 21.9562 26.8368 22.175C27.0556 22.3938 27.3524 22.5167 27.6618 22.5167H38.1618C38.4712 22.5167 38.7679 22.3938 38.9867 22.175C39.2055 21.9562 39.3284 21.6594 39.3284 21.35C39.3284 21.0406 39.2055 20.7439 38.9867 20.5251C38.7679 20.3063 38.4712 20.1833 38.1618 20.1833Z" fill="#000"/>
<path d="M23.0883 43.9483H29.05C29.3594 43.9483 29.6561 43.8254 29.8749 43.6066C30.0937 43.3878 30.2166 43.0911 30.2166 42.7817C30.2166 42.4722 30.0937 42.1755 29.8749 41.9567C29.6561 41.7379 29.3594 41.615 29.05 41.615H23.0883C22.7789 41.615 22.4821 41.7379 22.2633 41.9567C22.0445 42.1755 21.9216 42.4722 21.9216 42.7817C21.9216 43.0911 22.0445 43.3878 22.2633 43.6066C22.4821 43.8254 22.7789 43.9483 23.0883 43.9483Z" fill="#000"/>
<path d="M33.8333 46.7717H23.0883C22.7789 46.7717 22.4821 46.8946 22.2633 47.1134C22.0445 47.3322 21.9216 47.629 21.9216 47.9384C21.9216 48.2478 22.0445 48.5446 22.2633 48.7634C22.4821 48.9821 22.7789 49.1051 23.0883 49.1051H33.8333C34.1427 49.1051 34.4395 48.9821 34.6583 48.7634C34.877 48.5446 35 48.2478 35 47.9384C35 47.629 34.877 47.3322 34.6583 47.1134C34.4395 46.8946 34.1427 46.7717 33.8333 46.7717Z" fill="#000"/>
</svg>
