<svg width="53" height="64" viewBox="0 0 53 64" fill="none" xmlns="http://www.w3.org/2000/svg">
<path d="M52.25 36.5C52.25 51.3 40.6954 63.25 26.5 63.25C12.3046 63.25 0.75 51.3 0.75 36.5C0.75 21.7 12.3046 9.75 26.5 9.75C40.6954 9.75 52.25 21.7 52.25 36.5Z" stroke="black" stroke-width="1.5"/>
<rect x="20.75" y="1.75" width="11.5" height="2.5" rx="1.25" stroke="black" stroke-width="1.5"/>
<path d="M24.3856 31.6821L17.3988 19.3724C17.1416 18.9192 17.2121 18.4534 17.4699 18.2019C19.1473 16.5652 21.6722 15.8954 24.5182 15.7717C27.3503 15.6485 30.3655 16.0709 32.8971 16.488C33.7502 16.6285 34.219 17.5858 33.8037 18.3501L26.5711 31.6619C26.1028 32.5237 24.8697 32.5351 24.3856 31.6821Z" stroke="black" stroke-width="1.5"/>
<path d="M29.2431 42.1085L36.1331 54.2477C36.3892 54.699 36.3224 55.1698 36.0619 55.4302C34.4191 57.0721 32.0669 57.7317 29.4319 57.8501C26.8003 57.9684 24.0026 57.5424 21.5765 57.1234C20.7408 56.9791 20.2697 56.0586 20.6397 55.2993L27.0322 42.178C27.4728 41.2738 28.7466 41.2337 29.2431 42.1085Z" stroke="black" stroke-width="1.5"/>
<path d="M30.9845 31.549L36.1896 20.9524C36.493 20.3348 37.1655 20.145 37.6486 20.4316C39.4957 21.5272 41.6174 23.257 43.2941 25.3642C44.974 27.4754 46.1613 29.9062 46.2527 32.4145C46.2699 32.8863 45.8465 33.3501 45.187 33.3501H32.1065C31.1811 33.3501 30.5765 32.3796 30.9845 31.549Z" stroke="black" stroke-width="1.5"/>
<path d="M22.0753 42.6174L16.2819 54.3008C15.9728 54.9241 15.3173 55.0804 14.8796 54.7921C13.0992 53.6192 11.0956 51.6779 9.52692 49.3494C7.95635 47.0181 6.86388 44.362 6.81074 41.7587C6.80083 41.2732 7.23383 40.8121 7.88836 40.8121H20.9554C21.8828 40.8121 22.4873 41.7865 22.0753 42.6174Z" stroke="black" stroke-width="1.5"/>
<path d="M20.523 36.5486H8C7.28699 36.5486 6.79222 35.9861 6.85703 35.3837C7.27691 31.4811 8.95584 26.6039 12.3428 22.3871C12.7961 21.8228 13.7156 21.8624 14.1554 22.5764L21.5873 34.6431C22.1002 35.4759 21.5011 36.5486 20.523 36.5486Z" stroke="black" stroke-width="1.5"/>
<path d="M32.5962 37.018H44.9995C45.704 37.018 46.2308 37.5818 46.191 38.2208C45.9112 42.7214 44.5851 46.726 41.2818 51.062C40.82 51.6682 39.8624 51.6457 39.3992 50.9384L31.5505 38.9528C31.0061 38.1215 31.6025 37.018 32.5962 37.018Z" stroke="black" stroke-width="1.5"/>
<mask id="path-9-inside-1_18_16" fill="white">
<path fill-rule="evenodd" clip-rule="evenodd" d="M46.8284 19.5607L49.9749 16.4142C50.7559 15.6332 50.7559 14.3668 49.9749 13.5858C49.1938 12.8047 47.9275 12.8047 47.1465 13.5858L44 16.7322L46.8284 19.5607Z"/>
</mask>
<path d="M49.9749 16.4142L51.0355 17.4749L51.0355 17.4749L49.9749 16.4142ZM46.8284 19.5607L45.7678 20.6213L46.8284 21.682L47.8891 20.6213L46.8284 19.5607ZM49.9749 13.5858L51.0355 12.5251L51.0355 12.5251L49.9749 13.5858ZM47.1465 13.5858L48.2071 14.6464L48.2071 14.6464L47.1465 13.5858ZM44 16.7322L42.9393 15.6716L41.8787 16.7322L42.9393 17.7929L44 16.7322ZM48.9142 15.3536L45.7678 18.5L47.8891 20.6213L51.0355 17.4749L48.9142 15.3536ZM48.9142 14.6464C49.1095 14.8417 49.1095 15.1583 48.9142 15.3536L51.0355 17.4749C52.4024 16.108 52.4024 13.892 51.0355 12.5251L48.9142 14.6464ZM48.2071 14.6464C48.4024 14.4512 48.719 14.4512 48.9142 14.6464L51.0355 12.5251C49.6687 11.1583 47.4526 11.1583 46.0858 12.5251L48.2071 14.6464ZM45.0607 17.7929L48.2071 14.6464L46.0858 12.5251L42.9393 15.6716L45.0607 17.7929ZM42.9393 17.7929L45.7678 20.6213L47.8891 18.5L45.0607 15.6716L42.9393 17.7929Z" fill="black" mask="url(#path-9-inside-1_18_16)"/>
</svg>
