<svg width="64" height="64" viewBox="0 0 64 64" fill="none" xmlns="http://www.w3.org/2000/svg">
<path d="M44.1921 7.29716C39.863 3.72956 34.1641 2.30991 28.5596 3.40111C21.0144 4.86986 14.9545 11.2391 13.8231 18.8903C12.9003 25.1339 15.1184 31.3692 19.7567 35.5708C21.8466 37.4636 23.1075 40.19 23.3077 43.2487C23.3116 43.3042 23.3224 43.3577 23.3345 43.4107V53.0019C23.3345 53.5299 23.7624 53.9585 24.2911 53.9585H25.2446C25.633 56.7385 27.6763 58.8673 30.1374 58.8673H34.4804C36.9415 58.8673 38.9842 56.7385 39.3726 53.9585H40.326C40.8541 53.9585 41.2827 53.5299 41.2827 53.0019V43.2576C41.2827 43.2557 41.2833 43.2538 41.2833 43.2512C41.2833 40.4056 42.5754 37.6575 44.9223 35.5134C48.7883 31.9815 51.0051 26.9579 51.0051 21.7315C51.0058 16.1269 48.5224 10.8654 44.1921 7.29716ZM28.9263 25.4528H27.4563C26.6457 25.4528 25.9863 24.7933 25.9863 23.9827C25.9863 23.1722 26.6457 22.5127 27.4563 22.5127C28.2669 22.5127 28.9263 23.1722 28.9263 23.9827V25.4528ZM35.6922 23.9827C35.6922 23.1722 36.3516 22.5127 37.1628 22.5127C37.9734 22.5127 38.6328 23.1722 38.6328 23.9827C38.6328 24.7933 37.9734 25.4528 37.1628 25.4528H35.6941L35.6922 23.9827ZM35.1163 44.1396H39.3701V52.0452H38.4944C38.4925 52.0452 38.4906 52.0446 38.4881 52.0446C38.4855 52.0446 38.4842 52.0452 38.4817 52.0452H26.1361C26.1342 52.0452 26.1323 52.0446 26.1298 52.0446C26.1272 52.0446 26.1259 52.0452 26.1234 52.0452H25.2484V44.1396H34.4103H35.1163ZM30.8395 42.2264V27.366H33.784L33.8057 42.2264H30.8395ZM34.4804 56.954H30.1374C28.7101 56.954 27.5118 55.676 27.1801 53.9585H37.437C37.1061 55.676 35.9077 56.954 34.4804 56.954ZM43.6321 34.1014C41.1628 36.3571 39.7011 39.2117 39.4275 42.2264H35.7183L35.6973 27.366H37.1628C39.0282 27.366 40.5461 25.8482 40.5461 23.9827C40.5461 22.1173 39.0282 20.5995 37.1628 20.5995C35.2968 20.5995 33.7789 22.1173 33.7789 23.984L33.7808 25.4528H30.8395V23.9827C30.8395 22.1173 29.3217 20.5995 27.4563 20.5995C25.5909 20.5995 24.073 22.1173 24.073 23.9827C24.073 25.8482 25.5909 27.366 27.4563 27.366H28.9263V42.2264H25.1177C24.712 39.0344 23.2911 36.19 21.0405 34.1524C16.8773 30.3807 14.8863 24.7799 15.7153 19.1696C16.73 12.3074 22.1617 6.59563 28.9244 5.27866C33.9677 4.2978 39.0888 5.57075 42.974 8.77356C46.8617 11.977 49.0913 16.7002 49.0913 21.7321C49.0925 26.4222 47.1021 30.9311 43.6321 34.1014Z" fill="#000"/>
</svg>
