<svg width="31" height="34" viewBox="0 0 31 34" fill="none" xmlns="http://www.w3.org/2000/svg">
<g clip-path="url(#clip0_2_81)">
<path d="M10.689 17.9714C8.41416 15.4943 8.36584 13.2155 8.62607 12.3857L1.26633 4.12857C-3.1495 9.13142 5.08658 20.9667 9.10095 25.5607L12.6962 20.1571C12.975 20.4607 12.9638 20.4486 10.689 17.9714Z" fill="white"/>
<path d="M14.565 22.228C16.8398 24.6976 18.9325 24.7501 19.6945 24.4676L27.2772 32.4576C22.683 37.2516 13.0967 29.7337 8.87793 25.3755L12.5578 20.0489C12.279 19.7462 12.2902 19.7583 14.565 22.228Z" fill="white"/>
<path fill-rule="evenodd" clip-rule="evenodd" d="M9.55204 3.41107L9.58994 3.37072L6.63488 0.165323C6.37471 -0.0325407 5.67591 -0.214576 4.96224 0.640196L2.11871 3.37072L5.57635 7.16337L5.57552 7.16429L9.34305 11.2929L12.3349 8.075C12.5196 7.79165 12.6895 7.03071 11.8917 6.25357L9.55204 3.41107Z" fill="white"/>
<path fill-rule="evenodd" clip-rule="evenodd" d="M28.063 23.811L28.1009 23.7707L25.1458 20.5653C24.8856 20.3674 24.1869 20.1854 23.4732 21.0402L20.6296 23.7707L24.0874 27.5635L24.0866 27.5643L27.8541 31.6929L30.846 28.475C31.0306 28.1916 31.2005 27.4307 30.4027 26.6536L28.063 23.811Z" fill="white"/>
</g>
<defs>
<clipPath id="clip0_2_81">
<rect width="31" height="34" fill="white"/>
</clipPath>
</defs>
</svg>
