<svg width="119" height="32" viewBox="0 0 119 32" fill="none" xmlns="http://www.w3.org/2000/svg">
<path d="M17.9785 21.625C17.9329 21.6706 17.8646 21.6934 17.7734 21.6934C17.7051 21.6706 17.6367 21.6478 17.5684 21.625C17.6139 21.6934 17.6709 21.7959 17.7393 21.9326C17.8304 22.0693 17.9102 22.2174 17.9785 22.377C18.0469 22.5137 18.1038 22.6618 18.1494 22.8213C18.2178 22.958 18.2633 23.0719 18.2861 23.1631C18.1494 23.2314 17.9899 23.2428 17.8076 23.1973C17.7393 23.3112 17.7393 23.4821 17.8076 23.71C17.8988 23.9378 17.9671 24.1087 18.0127 24.2227C18.0127 24.3594 17.9329 24.4619 17.7734 24.5303C17.7051 24.7809 17.6709 24.9404 17.6709 25.0088C17.6709 25.0771 17.6937 25.1455 17.7393 25.2139C17.8988 25.4645 17.9899 25.6354 18.0127 25.7266C18.0355 25.7949 18.0241 25.8633 17.9785 25.9316C17.8874 25.9772 17.7848 26 17.6709 26C17.5798 26 17.4886 26.0114 17.3975 26.0342C17.3063 25.9886 17.2266 25.9544 17.1582 25.9316C17.1126 25.8861 16.9987 25.8519 16.8164 25.8291C16.8164 26.0114 16.6911 26.1253 16.4404 26.1709C16.2809 26.3988 16.167 26.5355 16.0986 26.5811C16.0531 26.6494 16.0075 26.7064 15.9619 26.752C16.0075 26.8203 16.0531 26.8659 16.0986 26.8887C16.167 26.9342 16.2126 27.014 16.2354 27.1279C16.1214 27.2646 15.9961 27.3216 15.8594 27.2988C15.7227 27.276 15.5859 27.2988 15.4492 27.3672C15.4492 27.4355 15.4492 27.4925 15.4492 27.5381C15.472 27.6064 15.4606 27.6748 15.415 27.7432C15.2555 27.9027 15.1188 28.0394 15.0049 28.1533C14.9821 28.2673 14.9707 28.3812 14.9707 28.4951C14.9935 28.609 14.9593 28.7002 14.8682 28.7686C14.8226 29.0192 14.7656 29.1445 14.6973 29.1445C14.6517 29.1445 14.6175 29.1787 14.5947 29.2471C14.7998 29.5661 14.8226 29.7598 14.6631 29.8281C14.3896 29.9648 14.2529 29.9535 14.2529 29.7939C14.2529 29.6572 14.2415 29.5319 14.2188 29.418C14.0365 29.1901 13.9567 29.042 13.9795 28.9736C14.0251 28.9281 14.0592 28.8825 14.082 28.8369C14.082 28.404 14.1504 28.1191 14.2871 27.9824C14.1504 27.8229 14.0706 27.7318 14.0479 27.709C14.0479 27.709 14.0479 27.6976 14.0479 27.6748C14.139 27.4242 14.1846 27.2646 14.1846 27.1963C14.1846 27.1507 14.1618 27.0938 14.1162 27.0254C14.1618 26.8431 14.1846 26.695 14.1846 26.5811C14.2757 26.4671 14.3896 26.3646 14.5264 26.2734C14.6631 26.2051 14.6973 26.1025 14.6289 25.9658C14.4238 25.8291 14.3099 25.7493 14.2871 25.7266C14.2871 25.7038 14.2871 25.681 14.2871 25.6582C14.2415 25.3392 14.2415 25.0999 14.2871 24.9404C14.3327 24.7581 14.3327 24.61 14.2871 24.4961C14.2871 24.3822 14.3327 24.2454 14.4238 24.0859C14.515 23.9036 14.5492 23.7897 14.5264 23.7441C14.4124 23.6074 14.3213 23.5049 14.2529 23.4365C14.2757 23.6188 14.2301 23.7441 14.1162 23.8125C14.0023 23.8809 13.9225 23.8581 13.877 23.7441C13.8314 23.7897 13.7972 23.8809 13.7744 24.0176C13.7516 24.1543 13.7174 24.1999 13.6719 24.1543C13.5124 24.3138 13.4326 24.4391 13.4326 24.5303C13.4326 24.5986 13.4098 24.6556 13.3643 24.7012C13.2275 25.0885 13.0908 25.3164 12.9541 25.3848C12.8174 25.4303 12.6579 25.4303 12.4756 25.3848C12.3161 25.4303 12.1908 25.4987 12.0996 25.5898C12.0312 25.681 11.9173 25.7493 11.7578 25.7949C11.7122 25.8405 11.6667 25.8975 11.6211 25.9658C11.5983 26.0342 11.5299 26.0684 11.416 26.0684C11.2565 26.2051 11.1312 26.2734 11.04 26.2734C10.9717 26.2962 10.9033 26.2962 10.835 26.2734C10.6982 26.3646 10.5843 26.4102 10.4932 26.4102C10.4248 26.4102 10.3678 26.3874 10.3223 26.3418C10.14 26.4329 9.96908 26.4785 9.80957 26.4785C9.58171 26.4329 9.45638 26.4215 9.43359 26.4443C9.41081 26.4899 9.37663 26.5241 9.33105 26.5469C9.21712 26.5697 9.14876 26.5469 9.12598 26.4785C9.10319 26.4102 9.04622 26.3646 8.95508 26.3418L8.64746 26.6152C8.60189 26.5469 8.54492 26.4899 8.47656 26.4443C8.43099 26.3988 8.37402 26.3532 8.30566 26.3076C8.12337 26.3532 7.97526 26.3304 7.86133 26.2393C7.77018 26.1481 7.66764 26.057 7.55371 25.9658C7.25749 25.9886 7.0638 25.9658 6.97266 25.8975C6.88151 25.8291 6.7334 25.8063 6.52832 25.8291C6.43717 25.7835 6.34603 25.7266 6.25488 25.6582C6.18652 25.5671 6.10677 25.4873 6.01562 25.4189C5.81055 25.3962 5.66243 25.2594 5.57129 25.0088C5.06999 24.6898 4.75098 24.4505 4.61426 24.291C4.43197 24.1999 4.31803 24.1429 4.27246 24.1201C4.24967 24.0745 4.24967 24.0176 4.27246 23.9492C4.06738 23.9492 3.91927 23.9606 3.82812 23.9834C3.73698 23.9834 3.65723 23.9606 3.58887 23.915C3.54329 23.6644 3.48633 23.4365 3.41797 23.2314C3.34961 23.0264 3.25846 22.8441 3.14453 22.6846L2.83691 22.2402L2.66602 21.7959C2.62044 21.7275 2.56348 21.6706 2.49512 21.625C2.44954 21.5566 2.40397 21.4769 2.3584 21.3857C2.31283 21.1351 2.24447 20.9756 2.15332 20.9072C2.08496 20.8161 2.0166 20.7135 1.94824 20.5996C1.94824 20.4857 1.92546 20.3831 1.87988 20.292C1.8571 20.1781 1.8571 20.0641 1.87988 19.9502C1.78874 19.7223 1.72038 19.5856 1.6748 19.54C1.65202 19.4945 1.65202 19.4147 1.6748 19.3008C1.46973 19.0501 1.35579 18.8564 1.33301 18.7197C1.31022 18.5602 1.32161 18.4007 1.36719 18.2412C1.25326 18.0361 1.20768 17.9222 1.23047 17.8994C1.25326 17.8538 1.27604 17.8083 1.29883 17.7627C1.13932 17.5804 1.04818 17.4779 1.02539 17.4551C1.0026 17.4323 0.991211 17.3981 0.991211 17.3525C1.014 17.1702 1.03678 17.0107 1.05957 16.874C1.10514 16.7373 1.12793 16.5664 1.12793 16.3613C1.08236 16.293 1.03678 16.236 0.991211 16.1904C0.968424 16.1221 0.968424 16.0309 0.991211 15.917C0.854492 15.7803 0.77474 15.6549 0.751953 15.541C0.865885 15.2904 0.865885 15.0625 0.751953 14.8574C0.70638 14.6523 0.70638 14.4587 0.751953 14.2764C0.820312 14.0941 0.820312 13.9232 0.751953 13.7637C0.77474 13.6497 0.77474 13.57 0.751953 13.5244C0.751953 13.4788 0.729167 13.4105 0.683594 13.3193C0.751953 13.0231 0.77474 12.7952 0.751953 12.6357C0.729167 12.4535 0.77474 12.2826 0.888672 12.123C0.820312 11.5534 0.865885 11.1774 1.02539 10.9951C1.02539 10.904 1.0026 10.8356 0.957031 10.79C0.934245 10.7445 0.900065 10.6761 0.854492 10.585C0.877279 10.4027 0.922852 10.266 0.991211 10.1748C1.05957 10.0837 1.12793 9.98112 1.19629 9.86719C1.24186 9.73047 1.26465 9.55957 1.26465 9.35449C1.26465 9.14941 1.26465 8.95573 1.26465 8.77344C1.28743 8.63672 1.31022 8.5 1.33301 8.36328C1.37858 8.20378 1.41276 8.04427 1.43555 7.88477C1.36719 7.70247 1.37858 7.54297 1.46973 7.40625C1.42415 7.22396 1.43555 7.08724 1.50391 6.99609C1.59505 6.88216 1.65202 6.76823 1.6748 6.6543C1.72038 6.58594 1.77734 6.52897 1.8457 6.4834C1.91406 6.41504 1.97103 6.32389 2.0166 6.20996C2.06217 5.9821 2.14193 5.85677 2.25586 5.83398C2.36979 5.78841 2.44954 5.72005 2.49512 5.62891C2.56348 5.24154 2.71159 4.93392 2.93945 4.70605C2.93945 4.43262 2.96224 4.26172 3.00781 4.19336C3.05339 4.10221 3.09896 4.01107 3.14453 3.91992C3.14453 3.76042 3.17871 3.63509 3.24707 3.54395C3.31543 3.4528 3.361 3.32747 3.38379 3.16797C3.49772 3.09961 3.62305 3.04264 3.75977 2.99707C3.91927 2.9515 4.0446 2.87174 4.13574 2.75781C4.36361 2.62109 4.51172 2.50716 4.58008 2.41602C4.67122 2.32487 4.78516 2.25651 4.92188 2.21094C5.19531 2.09701 5.36621 2.00586 5.43457 1.9375C5.50293 1.84635 5.57129 1.75521 5.63965 1.66406C5.77637 1.45898 5.87891 1.34505 5.94727 1.32227C6.01562 1.29948 6.09538 1.29948 6.18652 1.32227C6.43717 1.13997 6.71061 1.04883 7.00684 1.04883C7.32585 0.934896 7.55371 0.84375 7.69043 0.775391C7.84993 0.684245 8.04362 0.615885 8.27148 0.570312C8.36263 0.52474 8.44238 0.49056 8.51074 0.467773C8.5791 0.444987 8.67025 0.45638 8.78418 0.501953C8.85254 0.593099 8.95508 0.650065 9.0918 0.672852C9.2513 0.672852 9.41081 0.695638 9.57031 0.741211C9.63867 0.695638 9.69564 0.661458 9.74121 0.638672C9.80957 0.615885 9.90072 0.604492 10.0146 0.604492C10.2197 0.672852 10.3337 0.707031 10.3564 0.707031C10.402 0.684245 10.4476 0.672852 10.4932 0.672852C10.5387 0.718424 10.5843 0.775391 10.6299 0.84375C10.6755 0.889323 10.7324 0.923503 10.8008 0.946289C10.9375 0.900716 11.0628 0.866536 11.1768 0.84375C11.2907 0.820964 11.4046 0.80957 11.5186 0.80957C11.8831 0.855143 12.2021 0.934896 12.4756 1.04883C12.7262 1.18555 12.8174 1.27669 12.749 1.32227C12.7035 1.34505 12.7035 1.40202 12.749 1.49316C12.8402 1.51595 12.9427 1.52734 13.0566 1.52734C13.1706 1.50456 13.2617 1.51595 13.3301 1.56152C13.3757 1.67546 13.444 1.7666 13.5352 1.83496C13.6263 1.88053 13.7061 1.94889 13.7744 2.04004C13.9339 2.04004 14.0479 2.06283 14.1162 2.1084C14.2074 2.15397 14.2757 2.21094 14.3213 2.2793C14.3896 2.39323 14.515 2.49577 14.6973 2.58691L15.0391 2.79199C15.2214 2.79199 15.3581 2.80339 15.4492 2.82617C15.5404 2.91732 15.6201 2.97428 15.6885 2.99707C15.7568 3.01986 15.7682 3.07682 15.7227 3.16797L15.6885 3.6123C15.8024 3.6123 15.9505 3.63509 16.1328 3.68066C16.1784 3.86296 16.2012 3.99967 16.2012 4.09082C16.1328 4.38704 16.1784 4.53516 16.3379 4.53516C16.4974 4.51237 16.6113 4.55794 16.6797 4.67188C16.6797 4.78581 16.6569 4.86556 16.6113 4.91113C16.5658 4.95671 16.5544 5.02507 16.5771 5.11621C16.4404 5.25293 16.2809 5.36686 16.0986 5.45801C16.0303 5.70866 15.9049 5.83398 15.7227 5.83398C15.5404 5.8112 15.3695 5.85677 15.21 5.9707C15.2327 6.26693 15.1872 6.40365 15.0732 6.38086C14.9593 6.35807 14.8796 6.42643 14.834 6.58594C14.834 6.92773 14.7542 7.12142 14.5947 7.16699C14.458 7.18978 14.3327 7.26953 14.2188 7.40625C14.2188 7.52018 14.1846 7.59993 14.1162 7.64551C14.0479 7.69108 13.9795 7.74805 13.9111 7.81641C13.7288 8.11263 13.5807 8.27214 13.4668 8.29492C13.3529 8.29492 13.2617 8.3291 13.1934 8.39746C13.125 8.53418 13.0566 8.61393 12.9883 8.63672C12.9427 8.63672 12.8971 8.65951 12.8516 8.70508C12.806 8.79622 12.749 8.86458 12.6807 8.91016C12.6351 8.93294 12.5895 8.96712 12.5439 9.0127C12.4528 9.1722 12.373 9.26335 12.3047 9.28613C12.2363 9.28613 12.168 9.30892 12.0996 9.35449C11.8717 9.514 11.7008 9.59375 11.5869 9.59375C11.473 9.59375 11.4388 9.52539 11.4844 9.38867C11.4844 9.27474 11.5186 9.19499 11.5869 9.14941C11.6781 9.08105 11.7464 9.02409 11.792 8.97852C11.7692 8.91016 11.735 8.8418 11.6895 8.77344C11.6439 8.70508 11.5983 8.63672 11.5527 8.56836C11.3021 8.45443 11.2109 8.35189 11.2793 8.26074C11.3704 8.14681 11.4388 8.05566 11.4844 7.9873C11.5072 7.66829 11.5413 7.45182 11.5869 7.33789C11.6553 7.22396 11.6895 7.11003 11.6895 6.99609C11.8717 6.79102 11.9287 6.66569 11.8604 6.62012C11.8148 6.57454 11.7578 6.52897 11.6895 6.4834C11.6439 6.36947 11.6211 6.26693 11.6211 6.17578C11.6211 6.08464 11.6439 5.9821 11.6895 5.86816C11.6667 5.84538 11.7236 5.76562 11.8604 5.62891C11.9971 5.4694 12.054 5.36686 12.0312 5.32129C11.8034 5.20736 11.7008 5.139 11.7236 5.11621C11.7692 5.09342 11.7806 5.05924 11.7578 5.01367C11.7122 4.9681 11.6667 4.92253 11.6211 4.87695C11.5983 4.80859 11.5299 4.78581 11.416 4.80859C11.2565 4.64909 11.1426 4.58073 11.0742 4.60352C11.0059 4.6263 10.9147 4.61491 10.8008 4.56934C10.7552 4.50098 10.6982 4.43262 10.6299 4.36426C10.5843 4.27311 10.5729 4.15918 10.5957 4.02246C10.3906 3.9541 10.2539 3.9541 10.1855 4.02246C10.1172 4.09082 10.026 4.14779 9.91211 4.19336C9.79818 4.14779 9.70703 4.10221 9.63867 4.05664C9.5931 3.98828 9.54753 3.93132 9.50195 3.88574C9.36523 3.93132 9.2627 3.99967 9.19434 4.09082C9.12598 4.15918 9.04622 4.22754 8.95508 4.2959C8.68164 4.18197 8.51074 4.18197 8.44238 4.2959C8.39681 4.40983 8.31706 4.50098 8.20312 4.56934C8.06641 4.77441 7.9069 4.9681 7.72461 5.15039C7.49674 5.24154 7.36003 5.35547 7.31445 5.49219C7.26888 5.62891 7.21191 5.75423 7.14355 5.86816C6.98405 6.00488 6.88151 6.13021 6.83594 6.24414C6.79036 6.35807 6.79036 6.47201 6.83594 6.58594C6.65365 6.8138 6.49414 6.95052 6.35742 6.99609C6.2207 7.04167 6.17513 7.16699 6.2207 7.37207L5.84473 7.81641C5.84473 8.1582 5.79915 8.40885 5.70801 8.56836C5.52572 8.77344 5.46875 8.98991 5.53711 9.21777C5.60547 9.42285 5.63965 9.63932 5.63965 9.86719C5.57129 9.98112 5.52572 10.1064 5.50293 10.2432C5.50293 10.3571 5.45736 10.4368 5.36621 10.4824C5.34342 10.5964 5.34342 10.6989 5.36621 10.79C5.389 10.8584 5.40039 10.9382 5.40039 11.0293C5.26367 11.2572 5.2181 11.4053 5.26367 11.4736C5.33203 11.5192 5.389 11.5762 5.43457 11.6445C5.41178 11.804 5.34342 11.918 5.22949 11.9863C5.11556 12.0319 5.08138 12.1458 5.12695 12.3281C5.28646 12.7155 5.34342 13.0459 5.29785 13.3193C5.25228 13.5928 5.27507 13.8548 5.36621 14.1055C5.36621 14.2194 5.34342 14.3105 5.29785 14.3789C5.27507 14.4245 5.24089 14.4814 5.19531 14.5498C5.19531 14.7321 5.2181 14.8916 5.26367 15.0283C5.33203 15.1423 5.389 15.2676 5.43457 15.4043C5.389 15.4727 5.33203 15.5068 5.26367 15.5068C5.19531 15.484 5.12695 15.4727 5.05859 15.4727C5.17253 15.7917 5.26367 16.0765 5.33203 16.3271C5.42318 16.5778 5.52572 16.8057 5.63965 17.0107C5.68522 17.2158 5.70801 17.3639 5.70801 17.4551C5.73079 17.5462 5.74219 17.6488 5.74219 17.7627C5.69661 17.8083 5.62826 17.8311 5.53711 17.8311C5.46875 17.8311 5.40039 17.8424 5.33203 17.8652C5.35482 17.9792 5.40039 18.0589 5.46875 18.1045C5.53711 18.1273 5.59408 18.1729 5.63965 18.2412C5.75358 18.2868 5.86751 18.3893 5.98145 18.5488C6.00423 18.7083 6.02702 18.8678 6.0498 19.0273C6.07259 19.1641 6.10677 19.3236 6.15234 19.5059C6.38021 19.6426 6.47135 19.7337 6.42578 19.7793C6.40299 19.8249 6.38021 19.8818 6.35742 19.9502C6.44857 20.2464 6.55111 20.4173 6.66504 20.4629C6.77897 20.4857 6.88151 20.5312 6.97266 20.5996C7.04102 20.987 7.14355 21.2604 7.28027 21.4199L7.58789 21.8301C7.88411 21.9896 8.14616 22.1263 8.37402 22.2402C8.44238 22.2174 8.49935 22.2061 8.54492 22.2061C8.61328 22.1833 8.69303 22.1719 8.78418 22.1719C8.87533 22.1947 8.93229 22.263 8.95508 22.377C8.97786 22.4681 9.01204 22.5479 9.05762 22.6162C9.23991 22.639 9.45638 22.639 9.70703 22.6162C9.95768 22.5706 10.14 22.4909 10.2539 22.377C10.5957 22.4225 10.8122 22.377 10.9033 22.2402C11.0173 22.1035 11.154 22.0124 11.3135 21.9668C11.359 21.8301 11.473 21.7161 11.6553 21.625C11.9743 21.5111 12.1452 21.4655 12.168 21.4883C12.5098 21.3288 12.7035 21.1693 12.749 21.0098C12.8174 20.8503 12.9085 20.7249 13.0225 20.6338C13.0225 20.5654 13.0566 20.4401 13.125 20.2578C13.1934 20.0755 13.2503 19.973 13.2959 19.9502C13.5693 19.9958 13.6605 19.9046 13.5693 19.6768C13.501 19.4261 13.4896 19.2324 13.5352 19.0957C13.8997 18.8678 14.1504 18.5716 14.2871 18.207C14.2188 18.0247 14.2301 17.7969 14.3213 17.5234C14.4124 17.2272 14.4808 17.0563 14.5264 17.0107C14.4808 16.9652 14.4124 16.9424 14.3213 16.9424C14.2301 16.9424 14.1276 16.9538 14.0137 16.9766C13.9225 16.9766 13.8314 16.988 13.7402 17.0107C13.6491 17.0107 13.5921 16.988 13.5693 16.9424C13.4554 16.874 13.3984 16.8285 13.3984 16.8057C13.4212 16.7601 13.4098 16.6917 13.3643 16.6006C13.2503 16.6234 13.1364 16.6917 13.0225 16.8057C12.9313 16.9196 12.8174 16.9766 12.6807 16.9766C12.1566 16.7943 11.849 16.7601 11.7578 16.874C11.6667 16.9652 11.5299 17.0563 11.3477 17.1475C11.2337 17.1475 11.1654 17.1247 11.1426 17.0791C11.1198 17.0335 11.0742 16.9993 11.0059 16.9766H10.4932C10.402 16.9538 10.3451 16.9196 10.3223 16.874C10.2995 16.8057 10.2539 16.7601 10.1855 16.7373C10.0944 16.7373 10.026 16.7715 9.98047 16.8398C9.95768 16.8854 9.88932 16.9196 9.77539 16.9424C9.72982 16.9652 9.66146 16.988 9.57031 17.0107C9.50195 17.0335 9.41081 17.0449 9.29688 17.0449C9.22852 16.7031 9.2513 16.4753 9.36523 16.3613C9.47917 16.2246 9.52474 16.0423 9.50195 15.8145C9.54753 15.7689 9.58171 15.7119 9.60449 15.6436C9.62728 15.5524 9.66146 15.4727 9.70703 15.4043C9.5931 15.1536 9.60449 14.9372 9.74121 14.7549C9.67285 14.7093 9.60449 14.6637 9.53613 14.6182C9.46777 14.5498 9.4222 14.4701 9.39941 14.3789C9.33105 14.3333 9.2627 14.2992 9.19434 14.2764C9.14876 14.2536 9.11458 14.1966 9.0918 14.1055C9.13737 13.9915 9.2513 13.946 9.43359 13.9688C9.63867 13.9915 9.79818 13.9801 9.91211 13.9346C9.95768 13.8662 9.96908 13.7979 9.94629 13.7295C9.9235 13.6383 9.94629 13.57 10.0146 13.5244C10.1286 13.5016 10.1969 13.5358 10.2197 13.627C10.2653 13.6953 10.3109 13.7637 10.3564 13.832C10.4704 13.7637 10.6071 13.7523 10.7666 13.7979C10.9489 13.8206 11.1198 13.8206 11.2793 13.7979L11.7578 13.7637C12.1908 13.627 12.4756 13.5814 12.6123 13.627C12.749 13.6725 12.9427 13.6953 13.1934 13.6953C13.2845 13.6725 13.3643 13.6383 13.4326 13.5928C13.5238 13.5472 13.6377 13.5358 13.7744 13.5586C14.1162 13.7181 14.3327 13.7751 14.4238 13.7295C14.5378 13.6839 14.6745 13.6839 14.834 13.7295C15.0846 13.6611 15.2441 13.6497 15.3125 13.6953C15.3809 13.7181 15.4492 13.7409 15.5176 13.7637C15.6315 13.7181 15.7796 13.6725 15.9619 13.627C16.1442 13.5814 16.2809 13.6383 16.3721 13.7979C16.486 13.7523 16.5771 13.7523 16.6455 13.7979C16.7139 13.8434 16.805 13.889 16.9189 13.9346C17.0329 13.889 17.1468 13.8662 17.2607 13.8662C17.3975 13.8434 17.5228 13.8548 17.6367 13.9004C17.7279 13.832 17.8418 13.7523 17.9785 13.6611C18.138 13.5472 18.2747 13.5814 18.3887 13.7637C18.3431 13.9232 18.2406 14.1055 18.0811 14.3105C17.9215 14.4928 17.876 14.6865 17.9443 14.8916C17.7848 15.0739 17.7051 15.2676 17.7051 15.4727C17.7279 15.6777 17.7165 15.8372 17.6709 15.9512C17.6709 16.0195 17.6937 16.0765 17.7393 16.1221C17.8076 16.1676 17.876 16.2132 17.9443 16.2588C18.0355 16.2816 18.1038 16.3158 18.1494 16.3613C18.2178 16.3841 18.252 16.4297 18.252 16.498C18.252 16.6803 18.0924 16.7487 17.7734 16.7031C17.7507 16.7487 17.7507 16.8285 17.7734 16.9424C17.7962 17.0335 17.8304 17.1019 17.876 17.1475C17.8988 17.1702 17.9102 17.3639 17.9102 17.7285C17.9102 18.0703 17.9102 18.4691 17.9102 18.9248C17.9102 19.3577 17.8988 19.7907 17.876 20.2236C17.876 20.6566 17.876 20.9528 17.876 21.1123C17.9215 21.2035 17.9671 21.2946 18.0127 21.3857C18.0811 21.4541 18.0697 21.5339 17.9785 21.625ZM37.3926 30.0674L36.8457 30.2041C36.8001 30.0674 36.7546 29.9762 36.709 29.9307C36.6634 29.9079 36.6064 29.8965 36.5381 29.8965C36.4925 29.8053 36.4355 29.737 36.3672 29.6914C36.2988 29.6686 36.2305 29.623 36.1621 29.5547C36.0254 29.3724 35.9115 29.2812 35.8203 29.2812C35.7292 29.2812 35.638 29.2812 35.5469 29.2812C35.319 29.1673 35.1367 29.1331 35 29.1787C34.8177 29.1559 34.7266 29.042 34.7266 28.8369C34.7266 28.6318 34.7038 28.4495 34.6582 28.29C34.4303 28.4723 34.2936 28.5749 34.248 28.5977C34.2253 28.6432 34.1797 28.666 34.1113 28.666C33.929 28.5977 33.7809 28.4951 33.667 28.3584C33.5758 28.2445 33.4619 28.1305 33.3252 28.0166C33.029 28.0394 32.8581 28.028 32.8125 27.9824C32.7669 27.9368 32.71 27.8799 32.6416 27.8115C32.5277 27.4469 32.4707 27.1507 32.4707 26.9229C32.3568 26.9001 32.2542 26.9342 32.1631 27.0254C32.0947 27.1165 32.0036 27.1735 31.8896 27.1963C31.7757 27.1963 31.6846 27.1621 31.6162 27.0938C31.5706 27.0482 31.5137 26.9912 31.4453 26.9229C31.4909 26.7178 31.4453 26.5811 31.3086 26.5127C31.1947 26.4671 31.0465 26.4671 30.8643 26.5127C30.7503 26.4215 30.6934 26.3304 30.6934 26.2393C30.6934 26.1709 30.6706 26.1139 30.625 26.0684C30.5794 26.0456 30.5225 26.0456 30.4541 26.0684C30.3857 26.1139 30.3174 26.1253 30.249 26.1025C30.0212 26.1253 29.8958 26.1367 29.873 26.1367C29.873 26.1367 29.8617 26.1253 29.8389 26.1025C29.7933 25.9886 29.8047 25.8861 29.873 25.7949C29.9642 25.681 29.9756 25.5557 29.9072 25.4189C29.8161 25.2822 29.7477 25.2139 29.7021 25.2139C29.6794 25.1911 29.6566 25.1569 29.6338 25.1113C29.6338 25.0202 29.6452 24.9518 29.668 24.9062C29.6908 24.8379 29.6794 24.7695 29.6338 24.7012C29.4743 24.5189 29.3831 24.4049 29.3604 24.3594C29.3604 24.291 29.3717 24.2227 29.3945 24.1543C29.3262 24.0176 29.292 23.8581 29.292 23.6758C29.2236 23.5618 29.1325 23.4821 29.0186 23.4365C28.9046 23.3682 28.859 23.2314 28.8818 23.0264C28.7907 22.4567 28.654 22.0352 28.4717 21.7617C28.2894 21.5794 28.1641 21.4427 28.0957 21.3516C28.0273 21.2376 28.0273 21.1237 28.0957 21.0098C28.0046 20.7819 27.9362 20.6338 27.8906 20.5654C27.8678 20.4971 27.8451 20.4173 27.8223 20.3262C27.7083 20.0527 27.6286 19.8818 27.583 19.8135C27.5374 19.7223 27.4919 19.6312 27.4463 19.54C27.4007 19.2894 27.3324 19.1413 27.2412 19.0957C27.1501 19.0501 27.0589 18.9818 26.9678 18.8906C27.0133 18.4349 26.9108 18.1045 26.6602 17.8994C26.5007 17.945 26.3753 17.945 26.2842 17.8994C25.874 18.0361 25.6348 18.0361 25.5664 17.8994C25.498 17.7627 25.4069 17.6602 25.293 17.5918C25.2246 17.6374 25.1676 17.6829 25.1221 17.7285C25.0993 17.7741 25.0423 17.7969 24.9512 17.7969C24.9284 17.9792 24.9512 18.1387 25.0195 18.2754C25.0879 18.3893 25.0537 18.5033 24.917 18.6172C24.8942 18.7083 24.8828 18.7881 24.8828 18.8564C24.8828 18.9248 24.8714 19.0046 24.8486 19.0957C24.8942 19.2096 24.9398 19.3236 24.9854 19.4375C25.0309 19.5514 25.0765 19.6654 25.1221 19.7793C25.0993 19.9388 25.0765 20.0983 25.0537 20.2578C25.0309 20.3945 25.0423 20.5312 25.0879 20.668C25.0423 20.8503 25.0081 21.0212 24.9854 21.1807C24.9626 21.3174 24.9284 21.4769 24.8828 21.6592C24.8828 21.7731 24.8942 21.887 24.917 22.001C24.9626 22.0921 25.0081 22.1947 25.0537 22.3086C25.0309 22.4225 25.0195 22.5137 25.0195 22.582C25.0195 22.6276 25.0081 22.6846 24.9854 22.7529C25.0081 22.8669 25.0309 22.9808 25.0537 23.0947C25.0993 23.1859 25.1107 23.2884 25.0879 23.4023C25.0195 23.4479 24.9512 23.4935 24.8828 23.5391C24.8372 23.5618 24.7917 23.6074 24.7461 23.6758C24.7005 23.8809 24.7119 24.0404 24.7803 24.1543C24.8714 24.2454 24.9056 24.3594 24.8828 24.4961C24.7917 24.7012 24.7689 24.8493 24.8145 24.9404C24.8828 25.0088 24.9398 25.0999 24.9854 25.2139C24.8942 25.4873 24.86 25.6582 24.8828 25.7266C24.9284 25.7721 24.974 25.8177 25.0195 25.8633C25.0651 25.9089 25.1221 25.943 25.1904 25.9658C25.2816 25.9886 25.3271 26.0456 25.3271 26.1367C25.3044 26.2734 25.2018 26.3304 25.0195 26.3076C24.86 26.3076 24.7575 26.2734 24.7119 26.2051C24.3473 26.2051 24.0967 26.2051 23.96 26.2051C23.8916 26.1595 23.846 26.1025 23.8232 26.0342C23.8005 25.9886 23.7549 25.9544 23.6865 25.9316C23.5726 25.9544 23.4928 25.9886 23.4473 26.0342C23.4245 26.1025 23.3561 26.1367 23.2422 26.1367C23.1738 26.1367 23.1055 26.1139 23.0371 26.0684C22.9688 26.0228 22.8776 26.0114 22.7637 26.0342C22.6497 26.0798 22.5472 26.1253 22.4561 26.1709C22.3877 26.2393 22.2852 26.2507 22.1484 26.2051C21.8522 26.2734 21.6813 26.2734 21.6357 26.2051C21.613 26.1595 21.5674 26.1139 21.499 26.0684C21.4535 26.1139 21.3965 26.1709 21.3281 26.2393C21.2826 26.3076 21.2142 26.3646 21.123 26.4102C20.918 26.4102 20.7926 26.319 20.7471 26.1367C20.6559 26.1595 20.5534 26.1595 20.4395 26.1367C20.3255 26.1367 20.2344 26.1481 20.166 26.1709C19.7103 25.943 19.4027 25.7721 19.2432 25.6582C19.4027 25.4531 19.5166 25.3164 19.585 25.248C19.6761 25.1569 19.7786 25.1227 19.8926 25.1455C20.0977 25.2139 20.2116 25.2367 20.2344 25.2139C20.2572 25.1683 20.2913 25.1227 20.3369 25.0771C20.4508 25.0316 20.542 24.986 20.6104 24.9404C20.7015 24.8721 20.7926 24.8151 20.8838 24.7695C20.861 24.6328 20.8838 24.5303 20.9521 24.4619C21.0433 24.3708 21.0547 24.2682 20.9863 24.1543C21.0547 24.0404 21.1117 23.915 21.1572 23.7783C21.2256 23.6188 21.3167 23.4821 21.4307 23.3682C21.3623 23.1859 21.3167 22.9922 21.2939 22.7871C21.4079 22.6732 21.4762 22.5137 21.499 22.3086C21.499 22.2402 21.4876 22.1719 21.4648 22.1035C21.4421 22.0124 21.4535 21.9326 21.499 21.8643C21.4535 21.7959 21.4079 21.7161 21.3623 21.625C21.3395 21.5111 21.2939 21.4199 21.2256 21.3516C21.2256 21.2148 21.2256 21.0667 21.2256 20.9072C21.2484 20.7249 21.2826 20.554 21.3281 20.3945C21.4421 20.2122 21.4762 20.1097 21.4307 20.0869C21.4079 20.0413 21.3737 19.9958 21.3281 19.9502C21.237 19.7679 21.18 19.5856 21.1572 19.4033C21.1572 19.221 21.1458 19.0387 21.123 18.8564C21.237 18.5146 21.3053 18.1729 21.3281 17.8311C21.3509 17.4665 21.3623 17.0905 21.3623 16.7031C21.2484 16.4297 21.2028 16.2588 21.2256 16.1904C21.2712 16.0993 21.2712 16.0081 21.2256 15.917C21.2028 15.7347 21.1914 15.6322 21.1914 15.6094C21.2142 15.5866 21.2256 15.5524 21.2256 15.5068C21.2028 15.3245 21.18 15.1195 21.1572 14.8916C21.1344 14.6637 21.1572 14.4473 21.2256 14.2422C21.3395 13.9232 21.3509 13.6839 21.2598 13.5244C21.1914 13.3649 21.1344 13.2054 21.0889 13.0459C21.1344 12.818 21.1344 12.5674 21.0889 12.2939C21.0661 12.0205 21.0547 11.7585 21.0547 11.5078C21.0775 11.2799 21.0775 11.1204 21.0547 11.0293C21.0547 10.9382 21.0775 10.847 21.123 10.7559C21.0775 10.6191 21.0433 10.4824 21.0205 10.3457C21.0205 10.1862 20.9863 10.0495 20.918 9.93555C20.9635 9.77604 20.9635 9.63932 20.918 9.52539C20.8952 9.38867 20.8952 9.22917 20.918 9.04688C20.8268 8.70508 20.7357 8.5 20.6445 8.43164C20.5762 8.36328 20.5534 8.23796 20.5762 8.05566C20.4622 7.8278 20.4167 7.70247 20.4395 7.67969C20.4622 7.63411 20.485 7.58854 20.5078 7.54297C20.4167 7.36068 20.3597 7.22396 20.3369 7.13281C20.3369 6.97331 20.2913 6.84798 20.2002 6.75684C19.9723 6.71126 19.8356 6.66569 19.79 6.62012C19.7673 6.57454 19.7331 6.52897 19.6875 6.4834C19.5964 6.41504 19.5052 6.36947 19.4141 6.34668C19.3457 6.32389 19.3229 6.24414 19.3457 6.10742C19.5964 6.08464 19.7445 6.06185 19.79 6.03906C19.8584 5.99349 19.9268 5.95931 19.9951 5.93652C20.0863 5.9821 20.1546 5.99349 20.2002 5.9707C20.2686 5.94792 20.3597 5.92513 20.4736 5.90234C20.8154 5.9707 21.0319 5.9821 21.123 5.93652C21.2142 5.89095 21.3281 5.86816 21.4648 5.86816C21.7155 6.00488 21.9092 6.07324 22.0459 6.07324C22.2738 5.89095 22.4105 5.78841 22.4561 5.76562C22.5244 5.74284 22.5928 5.70866 22.6611 5.66309C22.9118 5.68587 23.0371 5.74284 23.0371 5.83398C23.0599 5.92513 23.0599 6.02767 23.0371 6.1416C23.151 6.16439 23.2422 6.15299 23.3105 6.10742C23.3789 6.03906 23.4473 5.9707 23.5156 5.90234C23.584 5.83398 23.6523 5.77702 23.7207 5.73145C23.7891 5.68587 23.8916 5.67448 24.0283 5.69727C24.0739 5.74284 24.0967 5.7998 24.0967 5.86816C24.1195 5.93652 24.1536 6.01628 24.1992 6.10742C24.4954 5.99349 24.6663 5.9707 24.7119 6.03906C24.7803 6.08464 24.8714 6.11882 24.9854 6.1416C25.0993 6.11882 25.1676 6.07324 25.1904 6.00488C25.2132 5.93652 25.2702 5.87956 25.3613 5.83398C25.612 5.90234 25.7715 5.92513 25.8398 5.90234C25.9082 5.85677 25.9993 5.82259 26.1133 5.7998C26.2044 5.82259 26.2614 5.84538 26.2842 5.86816C26.3298 5.86816 26.3981 5.85677 26.4893 5.83398C26.626 5.90234 26.7513 5.99349 26.8652 6.10742C27.0247 6.06185 27.1615 5.99349 27.2754 5.90234C27.3893 5.8112 27.5488 5.77702 27.7539 5.7998C28.0046 5.89095 28.1755 5.91374 28.2666 5.86816C28.3577 5.82259 28.4945 5.82259 28.6768 5.86816C28.973 5.93652 29.1553 5.94792 29.2236 5.90234C29.4971 6.03906 29.6908 6.13021 29.8047 6.17578C29.9186 6.22135 30.0212 6.28971 30.1123 6.38086C30.2946 6.60872 30.3857 6.74544 30.3857 6.79102C30.4085 6.8138 30.4313 6.84798 30.4541 6.89355C30.6136 6.87077 30.7161 6.90495 30.7617 6.99609C30.8301 7.06445 30.887 7.1556 30.9326 7.26953C30.9782 7.3151 31.0352 7.36068 31.1035 7.40625C31.1719 7.45182 31.2288 7.50879 31.2744 7.57715C31.4111 7.80501 31.5592 7.94173 31.7188 7.9873C31.8783 8.01009 32.015 8.06706 32.1289 8.1582C32.1745 8.34049 32.2884 8.5 32.4707 8.63672C32.5163 8.77344 32.5732 8.91016 32.6416 9.04688C32.71 9.16081 32.7783 9.27474 32.8467 9.38867C32.8467 9.5026 32.8353 9.59375 32.8125 9.66211C32.7897 9.70768 32.7783 9.76465 32.7783 9.83301C32.9834 10.1748 33.1201 10.4255 33.1885 10.585C33.1885 10.8128 33.1543 10.9723 33.0859 11.0635C33.0859 11.2002 33.0859 11.3255 33.0859 11.4395C33.1087 11.5306 33.0973 11.6331 33.0518 11.7471C33.0518 12.0661 32.9948 12.2826 32.8809 12.3965C32.8581 12.6927 32.8581 12.8864 32.8809 12.9775C32.9264 13.0687 32.972 13.1484 33.0176 13.2168C32.9036 13.5358 32.8125 13.6953 32.7441 13.6953C32.6986 13.8776 32.6074 14.0029 32.4707 14.0713C32.4707 14.1396 32.4593 14.208 32.4365 14.2764C32.4137 14.3219 32.4137 14.3903 32.4365 14.4814C32.391 14.527 32.3454 14.5726 32.2998 14.6182C32.2542 14.6637 32.2201 14.7321 32.1973 14.8232C32.1289 14.8688 32.0605 14.9258 31.9922 14.9941C31.9238 15.0397 31.8555 15.0967 31.7871 15.165C31.7871 15.3245 31.7415 15.4499 31.6504 15.541C31.582 15.6094 31.5137 15.7005 31.4453 15.8145C31.263 15.9284 31.1377 16.0195 31.0693 16.0879C31.001 16.1562 30.944 16.2474 30.8984 16.3613L30.7617 16.7373C30.6934 16.8512 30.5908 16.9652 30.4541 17.0791C30.2718 17.0791 30.1351 17.1133 30.0439 17.1816C29.9756 17.3867 29.9642 17.4893 30.0098 17.4893C30.0781 17.4893 30.1237 17.512 30.1465 17.5576C30.1237 17.6715 30.1351 17.7969 30.1807 17.9336C30.4769 18.0703 30.6136 18.2298 30.5908 18.4121C30.568 18.5716 30.5566 18.7083 30.5566 18.8223C30.6022 18.8678 30.6592 18.902 30.7275 18.9248C30.8187 18.9476 30.887 18.9818 30.9326 19.0273C31.0465 19.3236 31.1377 19.4945 31.2061 19.54C31.2744 19.5628 31.3428 19.597 31.4111 19.6426C31.4339 19.7565 31.4339 19.859 31.4111 19.9502C31.3883 20.0413 31.3656 20.1325 31.3428 20.2236C31.3428 20.3148 31.3883 20.3717 31.4795 20.3945C31.5934 20.4173 31.6732 20.4515 31.7188 20.4971C31.7643 20.5654 31.7871 20.668 31.7871 20.8047C31.8099 20.9186 31.8099 21.0326 31.7871 21.1465C31.8555 21.2604 31.9238 21.3743 31.9922 21.4883C32.0605 21.6022 32.1289 21.7161 32.1973 21.8301C32.3568 21.9668 32.4707 22.1719 32.5391 22.4453C32.6986 22.9466 32.7897 23.4137 32.8125 23.8467C33.0404 24.0062 33.2796 24.0973 33.5303 24.1201C33.5758 24.234 33.61 24.348 33.6328 24.4619C33.6784 24.5531 33.6898 24.6784 33.667 24.8379C33.7581 24.9062 33.8379 24.9746 33.9062 25.043C33.9974 25.0885 34.0658 25.1455 34.1113 25.2139C34.1569 25.3278 34.2025 25.4189 34.248 25.4873C34.2936 25.5329 34.3278 25.6012 34.3506 25.6924C34.4645 25.8063 34.5557 25.9202 34.624 26.0342C34.6924 26.1709 34.7493 26.2962 34.7949 26.4102C34.7949 26.5013 34.7949 26.5924 34.7949 26.6836C34.7949 26.7747 34.8177 26.8431 34.8633 26.8887C34.9089 26.9342 34.9544 26.9684 35 26.9912C35.0684 27.0368 35.1253 27.0824 35.1709 27.1279C35.2165 27.3558 35.2848 27.5495 35.376 27.709C35.5583 27.8229 35.752 28.0394 35.957 28.3584C36.3672 28.5179 36.5837 28.723 36.6064 28.9736C36.6292 29.2471 36.7204 29.4635 36.8799 29.623C36.9938 29.623 37.0736 29.6572 37.1191 29.7256C37.1647 29.8167 37.2445 29.8851 37.3584 29.9307L37.3926 30.0674ZM29.2236 11.7812C29.2692 11.7129 29.292 11.6445 29.292 11.5762C29.3148 11.5078 29.349 11.4395 29.3945 11.3711C29.349 11.2799 29.3148 11.1888 29.292 11.0977C29.2692 11.0065 29.235 10.9154 29.1895 10.8242C29.1211 10.5736 29.0869 10.3001 29.0869 10.0039C28.9502 9.98112 28.8021 9.92415 28.6426 9.83301C28.5514 9.62793 28.4489 9.5026 28.335 9.45703C28.0843 9.41146 27.9476 9.35449 27.9248 9.28613C27.8564 9.28613 27.7995 9.25195 27.7539 9.18359C27.7311 9.11523 27.6969 9.05827 27.6514 9.0127C27.4691 9.03548 27.321 9.02409 27.207 8.97852C27.1159 8.91016 27.0133 8.85319 26.8994 8.80762C26.512 8.92155 26.2614 8.98991 26.1475 9.0127C26.0335 9.03548 25.8968 9.04688 25.7373 9.04688C25.5094 8.86458 25.3613 8.80762 25.293 8.87598C25.2474 8.92155 25.1676 8.92155 25.0537 8.87598C24.917 9.05827 24.8714 9.18359 24.917 9.25195C24.9626 9.32031 24.9967 9.37728 25.0195 9.42285C25.0423 9.53678 25.0309 9.62793 24.9854 9.69629C24.9398 9.74186 24.9056 9.81022 24.8828 9.90137C24.9056 10.2204 24.8828 10.4482 24.8145 10.585C24.7689 10.7217 24.7461 10.8812 24.7461 11.0635C24.7689 11.109 24.7689 11.166 24.7461 11.2344C24.7461 11.3027 24.7461 11.3825 24.7461 11.4736C24.86 11.6331 24.9398 11.8496 24.9854 12.123C25.0309 12.3965 24.9967 12.6471 24.8828 12.875C24.9284 13.0345 24.917 13.1826 24.8486 13.3193C24.8031 13.4333 24.7575 13.5586 24.7119 13.6953C24.7347 13.8776 24.7803 14.0485 24.8486 14.208C24.9398 14.3447 24.9626 14.527 24.917 14.7549C25.0765 14.8688 25.1676 14.96 25.1904 15.0283C25.236 15.0739 25.293 15.1081 25.3613 15.1309C25.4525 15.0625 25.5664 15.0397 25.7031 15.0625C25.8626 15.0625 25.9538 15.1309 25.9766 15.2676C26.1816 15.1536 26.2956 15.0739 26.3184 15.0283C26.3411 14.9827 26.3867 14.9486 26.4551 14.9258C26.7057 15.0625 26.8538 15.1423 26.8994 15.165C26.945 15.165 27.002 15.165 27.0703 15.165C27.1387 15.1195 27.1956 15.0625 27.2412 14.9941C27.2868 14.9258 27.3551 14.8802 27.4463 14.8574C27.5602 14.8574 27.6286 14.9144 27.6514 15.0283C27.6742 15.1195 27.7425 15.1423 27.8564 15.0967C28.1299 14.846 28.3008 14.6068 28.3691 14.3789C28.6426 14.2878 28.7793 14.1966 28.7793 14.1055C28.8249 13.9915 28.916 13.8434 29.0527 13.6611C29.0072 13.4105 28.9844 13.2396 28.9844 13.1484C29.1667 12.9206 29.2578 12.7611 29.2578 12.6699C29.2578 12.5788 29.2806 12.4762 29.3262 12.3623C29.2578 12.2028 29.2236 12.0091 29.2236 11.7812ZM48.3301 25.4189C48.3073 25.5329 48.3187 25.6354 48.3643 25.7266C48.4326 25.7949 48.4668 25.8861 48.4668 26C48.5579 26.2051 48.5807 26.3076 48.5352 26.3076C48.5124 26.3076 48.501 26.3304 48.501 26.376C48.4098 26.376 48.3415 26.3532 48.2959 26.3076C48.2731 26.2848 48.2161 26.2848 48.125 26.3076C47.8743 26.1481 47.7035 26.0911 47.6123 26.1367C47.5212 26.1823 47.43 26.1709 47.3389 26.1025C47.0882 26.1481 46.9401 26.1367 46.8945 26.0684C46.8717 26.0228 46.8376 25.9772 46.792 25.9316C46.473 26.0911 46.1312 26.1709 45.7666 26.1709C45.5615 26.1025 45.4248 26.0684 45.3564 26.0684C45.2881 26.0911 45.2083 26.1025 45.1172 26.1025C44.7982 26.1937 44.6387 26.1595 44.6387 26C44.6387 25.8633 44.6501 25.738 44.6729 25.624C44.5589 25.3734 44.5133 25.2367 44.5361 25.2139C44.5589 25.1911 44.5703 25.1569 44.5703 25.1113C44.5247 24.9974 44.4792 24.9062 44.4336 24.8379C44.388 24.7695 44.3652 24.6784 44.3652 24.5645C44.3197 24.4961 44.2855 24.4391 44.2627 24.3936C44.2399 24.3252 44.2171 24.2568 44.1943 24.1885C44.0804 23.915 44.0348 23.7555 44.0576 23.71C44.1032 23.6644 44.126 23.6074 44.126 23.5391C44.0348 23.2884 43.9665 23.1403 43.9209 23.0947C43.8981 23.0264 43.8867 22.9694 43.8867 22.9238C43.8639 22.696 43.8298 22.5934 43.7842 22.6162C43.7386 22.6162 43.693 22.5934 43.6475 22.5479C43.6019 22.3656 43.6019 22.2516 43.6475 22.2061C43.693 22.1377 43.7272 22.0693 43.75 22.001C43.7044 21.9554 43.6702 21.8984 43.6475 21.8301C43.6475 21.7617 43.6247 21.7048 43.5791 21.6592C43.4652 21.568 43.374 21.4769 43.3057 21.3857C43.2373 21.2946 43.1917 21.1579 43.1689 20.9756C43.1462 20.7021 43.1234 20.5199 43.1006 20.4287C43.1006 20.3376 43.1234 20.2464 43.1689 20.1553C43.055 20.1553 42.9411 20.1781 42.8271 20.2236C42.736 20.2464 42.6107 20.2578 42.4512 20.2578C42.1549 20.235 41.9499 20.2236 41.8359 20.2236C41.722 20.2236 41.5739 20.2236 41.3916 20.2236C41.1865 20.2008 41.0384 20.1895 40.9473 20.1895C40.8561 20.1895 40.7878 20.1553 40.7422 20.0869C40.6283 20.1325 40.5257 20.1667 40.4346 20.1895C40.3434 20.2122 40.2409 20.2122 40.127 20.1895C39.8991 20.3034 39.7738 20.349 39.751 20.3262C39.7282 20.3034 39.694 20.292 39.6484 20.292C39.6029 20.3376 39.5687 20.3945 39.5459 20.4629C39.5231 20.5312 39.4889 20.5882 39.4434 20.6338C39.4889 20.7249 39.5003 20.8161 39.4775 20.9072C39.4548 20.9984 39.432 21.0781 39.4092 21.1465C39.4548 21.3516 39.4775 21.4769 39.4775 21.5225C39.4775 21.568 39.4661 21.6136 39.4434 21.6592C39.3978 21.9098 39.3636 22.0807 39.3408 22.1719C39.1813 22.3314 39.0674 22.5251 38.999 22.7529C38.9535 22.8669 38.9193 22.9694 38.8965 23.0605C38.8737 23.1517 38.8395 23.2542 38.7939 23.3682C38.7484 23.6872 38.6914 23.9948 38.623 24.291C38.5775 24.5872 38.5547 24.8835 38.5547 25.1797C38.4863 25.3848 38.4294 25.4987 38.3838 25.5215C38.361 25.5215 38.3382 25.5443 38.3154 25.5898C38.2926 25.7038 38.2699 25.7721 38.2471 25.7949C38.2243 25.7949 38.2243 25.8519 38.2471 25.9658C38.0648 26.1253 37.9736 26.2051 37.9736 26.2051C37.9964 26.2279 37.9964 26.262 37.9736 26.3076C37.8141 26.4443 37.723 26.5583 37.7002 26.6494C37.7002 26.7406 37.666 26.8089 37.5977 26.8545C37.4837 26.8773 37.404 26.8545 37.3584 26.7861C37.3356 26.7178 37.29 26.6836 37.2217 26.6836C37.0622 26.7292 36.9368 26.8203 36.8457 26.957C36.7546 27.0938 36.6178 27.1393 36.4355 27.0938C36.39 27.1621 36.3444 27.3102 36.2988 27.5381C36.1165 27.6292 35.9229 27.6976 35.7178 27.7432C35.5355 27.8115 35.3646 27.9027 35.2051 28.0166C35.1595 27.9938 35.0911 27.9824 35 27.9824C34.9316 28.0052 34.8747 28.0166 34.8291 28.0166C34.7835 28.0622 34.7607 28.1191 34.7607 28.1875C34.7835 28.2786 34.7949 28.3698 34.7949 28.4609C34.5898 28.5521 34.4189 28.5749 34.2822 28.5293C34.1227 28.5977 34.0658 28.7799 34.1113 29.0762C33.9518 29.304 33.7126 29.3952 33.3936 29.3496C33.2796 29.5547 33.1999 29.68 33.1543 29.7256C33.1087 29.7712 33.029 29.7826 32.915 29.7598C32.8011 29.8281 32.7214 29.9079 32.6758 29.999C32.6074 30.113 32.5163 30.2041 32.4023 30.2725C32.2656 30.2952 32.1859 30.3294 32.1631 30.375C32.1403 30.4206 32.1061 30.4661 32.0605 30.5117C31.9466 30.6029 31.8441 30.6826 31.7529 30.751C31.639 30.8421 31.5251 30.9219 31.4111 30.9902C31.2061 31.2409 31.0921 31.389 31.0693 31.4346C31.0465 31.5029 31.001 31.5599 30.9326 31.6055C30.7731 31.4232 30.7275 31.2979 30.7959 31.2295C30.8415 31.1611 30.887 31.0814 30.9326 30.9902C31.0921 30.7396 31.1947 30.6029 31.2402 30.5801C31.263 30.5573 31.2858 30.5231 31.3086 30.4775C31.3542 30.432 31.3883 30.3636 31.4111 30.2725C31.4111 30.2041 31.4339 30.1357 31.4795 30.0674C31.7757 29.7939 31.9922 29.5319 32.1289 29.2812C32.2656 29.0306 32.3682 28.7458 32.4365 28.4268C32.5505 28.0622 32.653 27.8457 32.7441 27.7773C32.8125 27.4583 32.8923 27.2646 32.9834 27.1963C33.0518 27.1279 33.1087 27.0482 33.1543 26.957V26.4785C33.2682 26.4329 33.3822 26.3874 33.4961 26.3418C33.5872 26.319 33.6898 26.2848 33.8037 26.2393C33.8949 26.057 33.9974 25.8861 34.1113 25.7266C34.248 25.5443 34.3506 25.3278 34.4189 25.0771C34.5329 24.9632 34.624 24.8379 34.6924 24.7012C34.738 24.5872 34.7152 24.4961 34.624 24.4277C34.5329 24.3594 34.5101 24.2682 34.5557 24.1543C34.5557 24.0632 34.6012 24.0062 34.6924 23.9834C34.8063 23.9378 34.8975 23.8923 34.9658 23.8467C35.0342 23.6416 35.0911 23.5163 35.1367 23.4707C35.1367 23.334 35.1481 23.1973 35.1709 23.0605C35.1937 22.9238 35.2507 22.8099 35.3418 22.7188C35.319 22.582 35.3418 22.4453 35.4102 22.3086C35.4102 21.8984 35.4215 21.5339 35.4443 21.2148C35.4899 20.873 35.5924 20.611 35.752 20.4287C35.7292 20.0186 35.7633 19.7451 35.8545 19.6084C35.9684 19.4717 36.0482 19.3236 36.0938 19.1641C36.0938 19.0729 36.071 19.0046 36.0254 18.959C36.0026 18.8906 35.9798 18.8337 35.957 18.7881C36.0026 18.6058 36.0938 18.4691 36.2305 18.3779C36.3672 18.264 36.4811 18.1387 36.5723 18.002C36.5495 17.7969 36.5837 17.626 36.6748 17.4893C36.7887 17.3298 36.8571 17.1589 36.8799 16.9766C36.8343 16.6348 36.8229 16.4069 36.8457 16.293C36.8913 16.1562 36.9141 16.0195 36.9141 15.8828C37.0736 15.6777 37.1419 15.5638 37.1191 15.541C37.1191 15.5182 37.1191 15.484 37.1191 15.4385C37.1875 15.3473 37.2331 15.2334 37.2559 15.0967C37.2786 14.9372 37.3242 14.8005 37.3926 14.6865C37.4154 14.4131 37.404 14.1624 37.3584 13.9346C37.4495 13.8434 37.5293 13.7295 37.5977 13.5928C37.666 13.4561 37.7344 13.3193 37.8027 13.1826C37.5977 13.0687 37.5293 12.8864 37.5977 12.6357C37.6888 12.5902 37.7572 12.5332 37.8027 12.4648C37.8483 12.3737 37.8939 12.2939 37.9395 12.2256C37.8939 12.0433 37.9053 11.918 37.9736 11.8496C38.042 11.7812 38.0534 11.6901 38.0078 11.5762C38.0534 11.4622 38.099 11.3597 38.1445 11.2686C38.1901 11.1546 38.2015 11.0179 38.1787 10.8584C38.2015 10.7445 38.2357 10.6533 38.2812 10.585C38.3268 10.4938 38.3382 10.3799 38.3154 10.2432C38.361 10.1976 38.4066 10.152 38.4521 10.1064C38.5205 10.0381 38.5547 9.94694 38.5547 9.83301C38.5319 9.76465 38.5091 9.70768 38.4863 9.66211C38.4635 9.59375 38.4408 9.514 38.418 9.42285C38.5091 9.14941 38.5319 9.0013 38.4863 8.97852C38.4408 8.93294 38.418 8.88737 38.418 8.8418C38.4635 8.77344 38.4977 8.71647 38.5205 8.6709C38.5433 8.62533 38.5319 8.54557 38.4863 8.43164C38.418 8.38607 38.3382 8.34049 38.2471 8.29492C38.1787 8.24935 38.1104 8.20378 38.042 8.1582C37.9964 8.02148 37.9964 7.90755 38.042 7.81641C38.1104 7.72526 38.1673 7.62272 38.2129 7.50879C38.0762 7.30371 37.985 7.20117 37.9395 7.20117C37.9167 7.17839 37.8825 7.16699 37.8369 7.16699C37.6318 7.00749 37.5065 6.84798 37.4609 6.68848C37.2331 6.6429 37.0508 6.59733 36.9141 6.55176C37.0052 6.34668 37.1191 6.24414 37.2559 6.24414C37.4154 6.24414 37.5407 6.19857 37.6318 6.10742C38.1104 5.9707 38.6686 5.92513 39.3066 5.9707C39.4434 6.06185 39.5573 6.11882 39.6484 6.1416C39.7624 6.16439 39.8535 6.16439 39.9219 6.1416C39.9902 6.09603 40.0814 6.05046 40.1953 6.00488C40.3548 6.05046 40.4915 6.03906 40.6055 5.9707C40.7194 5.87956 40.8675 5.85677 41.0498 5.90234C41.2321 6.03906 41.346 6.09603 41.3916 6.07324C41.4372 6.02767 41.4827 5.99349 41.5283 5.9707C41.7334 6.01628 41.8815 6.03906 41.9727 6.03906C42.0866 6.03906 42.1663 6.06185 42.2119 6.10742C42.2803 6.06185 42.3486 6.02767 42.417 6.00488C42.5081 5.95931 42.5993 5.91374 42.6904 5.86816C42.8044 5.91374 42.8841 5.9707 42.9297 6.03906C42.998 6.10742 43.0778 6.16439 43.1689 6.20996C43.1234 6.39225 43.1234 6.52897 43.1689 6.62012C43.2373 6.71126 43.2943 6.8138 43.3398 6.92773C43.3171 7.01888 43.2943 7.08724 43.2715 7.13281C43.2487 7.17839 43.2259 7.23535 43.2031 7.30371C43.3626 7.486 43.488 7.62272 43.5791 7.71387C43.5791 7.89616 43.5449 8.03288 43.4766 8.12402C43.5677 8.28353 43.6247 8.46582 43.6475 8.6709C43.6702 8.87598 43.7386 9.03548 43.8525 9.14941C43.8525 9.26335 43.8639 9.35449 43.8867 9.42285C43.9323 9.49121 43.9551 9.57096 43.9551 9.66211C43.9779 9.88997 43.9779 10.0153 43.9551 10.0381C43.9323 10.0381 43.9209 10.0609 43.9209 10.1064C43.9893 10.1976 44.0462 10.3001 44.0918 10.4141C44.1374 10.5052 44.1602 10.6419 44.1602 10.8242C44.3652 11.0749 44.445 11.223 44.3994 11.2686C44.4222 11.4508 44.445 11.6104 44.4678 11.7471C44.5133 11.8838 44.5817 12.0091 44.6729 12.123C44.6729 12.3509 44.6956 12.5446 44.7412 12.7041C44.7868 12.8636 44.8324 13.0231 44.8779 13.1826C45.0374 13.1598 45.1286 13.137 45.1514 13.1143C45.1969 13.0687 45.2425 13.0459 45.2881 13.0459C45.402 13.2282 45.4248 13.3421 45.3564 13.3877C45.2881 13.4105 45.2425 13.4561 45.2197 13.5244C45.2425 13.7751 45.2311 13.9232 45.1855 13.9688C45.2311 14.0827 45.2311 14.208 45.1855 14.3447C45.1628 14.4814 45.1855 14.6068 45.2539 14.7207C45.2767 14.7891 45.3109 14.8574 45.3564 14.9258C45.4248 14.9714 45.459 15.0511 45.459 15.165C45.6641 15.3473 45.7552 15.5182 45.7324 15.6777C45.7324 15.8372 45.7096 15.9854 45.6641 16.1221C45.7552 16.3727 45.8122 16.5208 45.835 16.5664C45.8577 16.5892 45.8919 16.612 45.9375 16.6348C46.0286 16.7487 46.097 16.8854 46.1426 17.0449C46.1882 17.2044 46.2337 17.3525 46.2793 17.4893C46.3249 17.7855 46.3477 17.9792 46.3477 18.0703C46.5299 18.4121 46.6097 18.6742 46.5869 18.8564C46.5869 18.9476 46.5527 19.0273 46.4844 19.0957C46.416 19.1641 46.3704 19.2438 46.3477 19.335C46.5755 19.3805 46.7008 19.4603 46.7236 19.5742C46.7464 19.8704 46.7806 20.0869 46.8262 20.2236C46.8717 20.3376 46.8831 20.4857 46.8604 20.668C46.9059 20.7819 46.9401 20.9186 46.9629 21.0781C46.9857 21.2148 47.0312 21.363 47.0996 21.5225C47.1452 21.6364 47.168 21.7389 47.168 21.8301C47.1908 21.8984 47.1794 21.9896 47.1338 22.1035C47.1794 22.1947 47.2477 22.2858 47.3389 22.377C47.43 22.4681 47.43 22.582 47.3389 22.7188C47.43 23.0605 47.5553 23.3112 47.7148 23.4707C47.7604 23.6302 47.806 23.7441 47.8516 23.8125C47.9199 23.8581 47.9769 23.9264 48.0225 24.0176C48.0225 24.1087 48.0111 24.1885 47.9883 24.2568C47.9655 24.3024 47.9427 24.348 47.9199 24.3936C47.9655 24.5075 48.0111 24.5986 48.0566 24.667C48.125 24.7354 48.1478 24.8607 48.125 25.043C48.1706 25.0885 48.2048 25.1569 48.2275 25.248C48.2503 25.3164 48.2845 25.3734 48.3301 25.4189ZM42.5195 17.0791C42.474 17.0107 42.417 16.9538 42.3486 16.9082C42.3031 16.8398 42.2575 16.7487 42.2119 16.6348C42.1891 16.4753 42.1891 16.3613 42.2119 16.293C42.2347 16.2018 42.2575 16.0993 42.2803 15.9854C42.098 15.8486 41.9499 15.7005 41.8359 15.541C41.7448 15.3815 41.7562 15.1878 41.8701 14.96L41.6992 14.584C41.6081 14.4473 41.5625 14.3219 41.5625 14.208C41.4258 14.0941 41.3916 13.9346 41.46 13.7295C41.4144 13.6839 41.3802 13.6042 41.3574 13.4902C41.3574 13.3535 41.3802 13.251 41.4258 13.1826C41.403 12.932 41.403 12.7269 41.4258 12.5674C41.4714 12.3851 41.4714 12.237 41.4258 12.123C41.3574 12.1914 41.3118 12.2712 41.2891 12.3623C41.2663 12.4307 41.2321 12.499 41.1865 12.5674C41.141 12.7952 41.1068 12.9775 41.084 13.1143C41.0612 13.251 41.027 13.3763 40.9814 13.4902C41.0042 13.6042 41.0156 13.7751 41.0156 14.0029C40.9701 14.0941 40.9131 14.1738 40.8447 14.2422C40.7764 14.3105 40.708 14.3903 40.6396 14.4814C40.7308 14.5954 40.7536 14.7093 40.708 14.8232C40.6624 14.9144 40.6055 15.0055 40.5371 15.0967C40.6283 15.3018 40.651 15.4385 40.6055 15.5068C40.5599 15.5524 40.5371 15.6094 40.5371 15.6777C40.4688 15.86 40.4574 16.0423 40.5029 16.2246C40.5713 16.4069 40.5713 16.5892 40.5029 16.7715C40.5485 16.931 40.5599 17.0791 40.5371 17.2158C40.5371 17.3298 40.5941 17.4095 40.708 17.4551C40.8903 17.4323 41.027 17.3753 41.1182 17.2842C41.2093 17.193 41.3346 17.1589 41.4941 17.1816C41.7676 17.2956 41.9613 17.3639 42.0752 17.3867C42.2119 17.3867 42.36 17.3867 42.5195 17.3867V17.0791ZM60.3271 8.08984C60.2816 8.1582 60.236 8.21517 60.1904 8.26074C60.1676 8.30632 60.1449 8.36328 60.1221 8.43164C60.0993 8.54557 60.0993 8.63672 60.1221 8.70508C60.1676 8.75065 60.2018 8.81901 60.2246 8.91016C60.1335 9.04688 60.0765 9.1722 60.0537 9.28613C59.7347 9.35449 59.541 9.37728 59.4727 9.35449C59.4271 9.33171 59.3701 9.29753 59.3018 9.25195C59.2106 9.27474 59.1309 9.30892 59.0625 9.35449C58.9941 9.37728 58.9144 9.41146 58.8232 9.45703C58.6182 9.3431 58.4928 9.26335 58.4473 9.21777C58.4017 9.14941 58.3561 9.09245 58.3105 9.04688C58.0599 9.06966 57.832 9.08105 57.627 9.08105C57.4219 9.05827 57.2282 9.08105 57.0459 9.14941C56.6357 9.0127 56.3509 9.0013 56.1914 9.11523C56.0319 9.22917 55.8268 9.27474 55.5762 9.25195C55.3939 9.11523 55.2686 9.06966 55.2002 9.11523C55.1318 9.13802 55.0407 9.13802 54.9268 9.11523C54.6989 8.93294 54.5622 8.86458 54.5166 8.91016C54.471 8.93294 54.4141 8.95573 54.3457 8.97852C54.2318 8.95573 54.1292 8.94434 54.0381 8.94434C53.9469 8.94434 53.8672 8.96712 53.7988 9.0127C53.7533 9.05827 53.7191 9.12663 53.6963 9.21777C53.6735 9.28613 53.6393 9.3431 53.5938 9.38867C53.7305 9.66211 53.7646 9.82161 53.6963 9.86719C53.6507 9.91276 53.6051 9.98112 53.5596 10.0723C53.5824 10.1634 53.6051 10.2546 53.6279 10.3457C53.6507 10.4368 53.6507 10.5394 53.6279 10.6533C53.6735 10.7673 53.7191 10.8812 53.7646 10.9951C53.833 11.109 53.8786 11.2344 53.9014 11.3711C54.0153 11.5762 54.0381 11.7015 53.9697 11.7471C53.9242 11.7699 53.8786 11.8154 53.833 11.8838C53.9014 12.2712 53.9242 12.5446 53.9014 12.7041C53.8786 12.8636 53.89 13.0345 53.9355 13.2168C53.9811 13.2852 54.0039 13.3877 54.0039 13.5244C54.0267 13.6383 54.0495 13.7181 54.0723 13.7637C54.0039 13.946 54.0039 14.0371 54.0723 14.0371C54.1406 14.0371 54.2318 14.0371 54.3457 14.0371C54.6419 14.151 54.8242 14.1966 54.8926 14.1738C54.9609 14.151 55.0407 14.1283 55.1318 14.1055C55.2458 13.9915 55.3711 13.9004 55.5078 13.832C55.6445 13.7409 55.7812 13.6497 55.918 13.5586C56.2142 13.6953 56.3851 13.7295 56.4307 13.6611C56.499 13.5928 56.5902 13.5928 56.7041 13.6611C56.8636 13.8206 56.9661 13.8662 57.0117 13.7979C57.0573 13.7067 57.1484 13.6611 57.2852 13.6611C57.3991 13.57 57.5016 13.4788 57.5928 13.3877C57.7067 13.2965 57.8092 13.194 57.9004 13.0801C58.0827 12.9889 58.2536 12.8864 58.4131 12.7725C58.5726 12.6357 58.7549 12.5446 58.96 12.499C59.1878 12.6585 59.2676 12.7725 59.1992 12.8408C59.222 13.0231 59.1764 13.1484 59.0625 13.2168C58.9714 13.2852 58.903 13.3649 58.8574 13.4561C58.7663 13.7523 58.6865 13.9574 58.6182 14.0713C58.5498 14.1852 58.4701 14.2992 58.3789 14.4131C58.4701 14.6637 58.4473 14.8802 58.3105 15.0625C58.1738 15.222 58.0713 15.3929 58.0029 15.5752C57.9801 15.8714 57.9801 16.1107 58.0029 16.293C58.0257 16.4753 57.9688 16.6348 57.832 16.7715C57.7409 17.0221 57.6383 17.1475 57.5244 17.1475C57.4333 17.1475 57.3649 17.1702 57.3193 17.2158C57.0231 17.2386 56.8408 17.2614 56.7725 17.2842C56.7269 17.307 56.6813 17.307 56.6357 17.2842L56.1914 17.0791C56.0091 17.1247 55.8952 17.1361 55.8496 17.1133C55.804 17.0905 55.7471 17.0791 55.6787 17.0791C55.5648 17.1019 55.4622 17.1475 55.3711 17.2158C55.2799 17.2842 55.166 17.307 55.0293 17.2842C54.8242 17.1475 54.6761 17.1019 54.585 17.1475C54.4938 17.1702 54.4255 17.1133 54.3799 16.9766C54.4255 16.9082 54.4938 16.874 54.585 16.874C54.6761 16.8512 54.7217 16.7829 54.7217 16.6689C54.585 16.6462 54.471 16.6803 54.3799 16.7715C54.2887 16.8626 54.1862 16.9196 54.0723 16.9424C53.9811 17.2386 53.9128 17.4209 53.8672 17.4893C53.8216 17.5348 53.7874 17.6146 53.7646 17.7285C53.7646 17.8424 53.7874 17.9222 53.833 17.9678C53.8786 18.0133 53.9014 18.0817 53.9014 18.1729C53.9242 18.3096 53.8786 18.4349 53.7646 18.5488C53.6507 18.6628 53.5596 18.7995 53.4912 18.959C53.4684 19.0501 53.4456 19.1299 53.4229 19.1982C53.4229 19.2666 53.4229 19.3577 53.4229 19.4717C53.5596 19.6768 53.6051 19.8135 53.5596 19.8818C53.514 19.9274 53.4912 19.9958 53.4912 20.0869C53.6507 20.3148 53.7191 20.4515 53.6963 20.4971C53.6735 20.5426 53.6621 20.611 53.6621 20.7021C53.7988 21.0439 53.8786 21.2376 53.9014 21.2832C53.8786 21.4655 53.8558 21.5908 53.833 21.6592C53.8102 21.7048 53.7874 21.7503 53.7646 21.7959C53.9242 22.0921 53.9811 22.263 53.9355 22.3086C53.9128 22.3314 53.9014 22.3997 53.9014 22.5137C53.8558 23.015 53.833 23.4365 53.833 23.7783C53.8786 23.9606 53.8786 24.1429 53.833 24.3252C53.8102 24.4847 53.776 24.6328 53.7305 24.7695C53.776 25.0202 53.776 25.2025 53.7305 25.3164C53.8216 25.4987 53.8672 25.6696 53.8672 25.8291C53.9128 25.8747 53.9355 25.943 53.9355 26.0342C53.9583 26.1253 53.9242 26.1937 53.833 26.2393C53.514 26.2165 53.252 26.2165 53.0469 26.2393C52.8646 26.2848 52.7165 26.2507 52.6025 26.1367C52.5114 26.1595 52.4202 26.1823 52.3291 26.2051C52.2607 26.2279 52.181 26.2507 52.0898 26.2734C51.9303 26.2279 51.7708 26.2279 51.6113 26.2734C51.4746 26.319 51.3265 26.3418 51.167 26.3418C50.848 26.2507 50.6429 26.2507 50.5518 26.3418C50.4606 26.4329 50.3239 26.4899 50.1416 26.5127C49.6631 26.376 49.2529 26.2848 48.9111 26.2393C48.5921 26.2165 48.3301 26.2848 48.125 26.4443C47.8743 26.376 47.7376 26.3304 47.7148 26.3076C47.5326 26.3532 47.3958 26.4329 47.3047 26.5469C47.1908 26.6836 47.0085 26.7292 46.7578 26.6836C46.8717 26.4557 46.9629 26.319 47.0312 26.2734C47.0768 26.2507 47.1224 26.2165 47.168 26.1709C47.2591 26.1253 47.3503 26.057 47.4414 25.9658C47.5326 25.8747 47.6351 25.8063 47.749 25.7607C48.068 25.8291 48.2731 25.8291 48.3643 25.7607C48.4554 25.6924 48.5579 25.6354 48.6719 25.5898C48.6719 25.3848 48.6719 25.2025 48.6719 25.043C48.8086 24.9974 48.9111 24.9176 48.9795 24.8037C48.9111 24.7126 48.8997 24.6214 48.9453 24.5303C48.9909 24.4391 49.0592 24.3708 49.1504 24.3252C49.2643 24.2796 49.3669 24.2682 49.458 24.291C49.5492 24.3138 49.6061 24.3936 49.6289 24.5303C49.7884 24.4847 49.8796 24.3708 49.9023 24.1885C49.9479 24.0062 50.0277 23.8581 50.1416 23.7441C50.096 23.6074 50.0505 23.5277 50.0049 23.5049C49.9821 23.4821 49.9707 23.4479 49.9707 23.4023C49.9023 23.1289 49.9137 22.958 50.0049 22.8896C50.096 22.8213 50.1302 22.696 50.1074 22.5137C50.0391 22.2402 49.9935 22.0807 49.9707 22.0352C49.9479 21.9896 49.9365 21.9212 49.9365 21.8301C49.9821 21.6934 49.9935 21.5566 49.9707 21.4199C49.9935 21.3288 50.0505 21.2148 50.1416 21.0781C50.096 20.7591 50.096 20.4515 50.1416 20.1553C50.21 19.859 50.2669 19.5514 50.3125 19.2324C50.3809 19.1413 50.415 18.9932 50.415 18.7881C50.2327 18.9476 50.096 19.0046 50.0049 18.959C50.0049 18.7767 50.0618 18.64 50.1758 18.5488C50.2897 18.4577 50.3695 18.3438 50.415 18.207C50.3239 17.9564 50.2669 17.7855 50.2441 17.6943C50.2441 17.5804 50.2669 17.5007 50.3125 17.4551C50.3125 17.3867 50.2783 17.3298 50.21 17.2842C50.1416 17.2386 50.1302 17.1589 50.1758 17.0449C50.0163 16.7487 49.9935 16.5664 50.1074 16.498C50.2214 16.4069 50.3011 16.2816 50.3467 16.1221C50.3239 15.9398 50.2783 15.7803 50.21 15.6436C50.1644 15.5068 50.153 15.3473 50.1758 15.165C50.1302 14.8688 50.1416 14.6523 50.21 14.5156C50.0277 14.3333 49.9707 14.0941 50.0391 13.7979C49.9935 13.3877 49.9821 13.0915 50.0049 12.9092C50.0505 12.7041 50.1302 12.5332 50.2441 12.3965C50.2441 12.3281 50.2441 12.2598 50.2441 12.1914C50.2441 12.1003 50.2327 12.0205 50.21 11.9521C50.21 11.7015 50.21 11.542 50.21 11.4736C50.2327 11.3597 50.2669 11.2799 50.3125 11.2344C50.3809 11.166 50.4378 11.0977 50.4834 11.0293C50.4378 10.9154 50.3695 10.8242 50.2783 10.7559C50.1872 10.6875 50.1302 10.585 50.1074 10.4482C49.9707 10.266 49.9251 10.1634 49.9707 10.1406C50.0391 10.1178 50.0846 10.0837 50.1074 10.0381C50.0163 9.81022 49.9935 9.6735 50.0391 9.62793C50.0846 9.55957 50.1188 9.46842 50.1416 9.35449C50.096 9.24056 50.0277 9.1722 49.9365 9.14941C49.8682 9.10384 49.7998 9.04688 49.7314 8.97852C49.7087 8.81901 49.6517 8.70508 49.5605 8.63672C49.4922 8.56836 49.4466 8.45443 49.4238 8.29492C49.2643 8.06706 49.196 7.94173 49.2188 7.91895C49.0365 7.80501 48.9339 7.73665 48.9111 7.71387C48.8883 7.66829 48.877 7.62272 48.877 7.57715C48.6719 7.62272 48.4782 7.59993 48.2959 7.50879C48.1364 7.39486 48.0225 7.28092 47.9541 7.16699C47.7718 7.05306 47.6351 6.95052 47.5439 6.85938C47.4756 6.79102 47.3844 6.74544 47.2705 6.72266C47.1338 6.67708 47.0882 6.58594 47.1338 6.44922C47.43 6.44922 47.6237 6.38086 47.7148 6.24414C47.8288 6.3125 47.9427 6.3125 48.0566 6.24414C48.1478 6.17578 48.2503 6.15299 48.3643 6.17578C48.4554 6.17578 48.5352 6.20996 48.6035 6.27832C48.6947 6.34668 48.82 6.36947 48.9795 6.34668C49.139 6.20996 49.2985 6.17578 49.458 6.24414C49.5719 6.22135 49.6631 6.18717 49.7314 6.1416C49.7998 6.07324 49.891 6.02767 50.0049 6.00488C50.0505 6.05046 50.1302 6.07324 50.2441 6.07324C50.3581 6.05046 50.4606 6.05046 50.5518 6.07324C50.6657 6.02767 50.791 5.95931 50.9277 5.86816C51.0645 5.77702 51.2012 5.77702 51.3379 5.86816C51.3835 5.9821 51.3835 6.07324 51.3379 6.1416C51.2923 6.20996 51.2581 6.28971 51.2354 6.38086C51.486 6.35807 51.6683 6.33529 51.7822 6.3125C51.8962 6.26693 52.0101 6.23275 52.124 6.20996C52.238 6.27832 52.4544 6.28971 52.7734 6.24414C52.9102 6.22135 53.0241 6.18717 53.1152 6.1416C53.2292 6.09603 53.3431 6.13021 53.457 6.24414C53.5938 6.40365 53.7077 6.46061 53.7988 6.41504C53.89 6.34668 53.9925 6.27832 54.1064 6.20996C54.266 6.23275 54.4141 6.22135 54.5508 6.17578C54.7103 6.13021 54.8812 6.13021 55.0635 6.17578C55.223 6.15299 55.3711 6.09603 55.5078 6.00488C55.6673 5.91374 55.8154 5.92513 55.9521 6.03906C56.1344 6.24414 56.3281 6.32389 56.5332 6.27832C56.7383 6.20996 56.932 6.19857 57.1143 6.24414C57.2282 6.24414 57.3421 6.24414 57.4561 6.24414C57.57 6.22135 57.6725 6.23275 57.7637 6.27832C57.9004 6.1416 58.0599 6.02767 58.2422 5.93652C58.4473 5.84538 58.6523 5.76562 58.8574 5.69727C58.9714 5.67448 59.0511 5.68587 59.0967 5.73145C59.1423 5.75423 59.2106 5.76562 59.3018 5.76562C59.4385 5.62891 59.5296 5.54915 59.5752 5.52637C59.6208 5.48079 59.6663 5.43522 59.7119 5.38965C60.0081 5.32129 60.2132 5.25293 60.3271 5.18457C60.4639 5.09342 60.612 4.99089 60.7715 4.87695C60.8398 4.76302 60.9082 4.67188 60.9766 4.60352C61.0677 4.51237 61.1589 4.43262 61.25 4.36426C61.25 4.11361 61.3184 3.9541 61.4551 3.88574C61.5918 3.7946 61.7057 3.68066 61.7969 3.54395C61.7741 3.49837 61.7399 3.44141 61.6943 3.37305C61.6488 3.30469 61.6488 3.23633 61.6943 3.16797C61.8083 3.14518 61.9108 3.15658 62.002 3.20215C62.1159 3.24772 62.207 3.29329 62.2754 3.33887C62.2982 3.58952 62.3438 3.70345 62.4121 3.68066C62.4805 3.63509 62.526 3.63509 62.5488 3.68066C62.5488 3.81738 62.4919 3.89714 62.3779 3.91992C62.264 3.91992 62.1615 3.94271 62.0703 3.98828C61.9792 4.125 61.8994 4.27311 61.8311 4.43262C61.7855 4.56934 61.7741 4.72884 61.7969 4.91113C61.7513 5.00228 61.7057 5.08203 61.6602 5.15039C61.6146 5.21875 61.5918 5.3099 61.5918 5.42383C61.4551 5.65169 61.3639 5.77702 61.3184 5.7998C61.2956 5.82259 61.25 5.82259 61.1816 5.7998C61.1589 6.1416 61.1702 6.34668 61.2158 6.41504C61.2842 6.46061 61.3298 6.52897 61.3525 6.62012C61.3298 6.73405 61.2614 6.79102 61.1475 6.79102C61.0563 6.79102 60.9766 6.8138 60.9082 6.85938C60.8854 6.92773 60.874 6.99609 60.874 7.06445C60.874 7.13281 60.8626 7.21257 60.8398 7.30371C60.6576 7.46322 60.5208 7.58854 60.4297 7.67969C60.3613 7.77083 60.3271 7.90755 60.3271 8.08984ZM71.6406 8.08984C71.5951 8.1582 71.5495 8.21517 71.5039 8.26074C71.4811 8.30632 71.4583 8.36328 71.4355 8.43164C71.4128 8.54557 71.4128 8.63672 71.4355 8.70508C71.4811 8.75065 71.5153 8.81901 71.5381 8.91016C71.4469 9.04688 71.39 9.1722 71.3672 9.28613C71.0482 9.35449 70.8545 9.37728 70.7861 9.35449C70.7406 9.33171 70.6836 9.29753 70.6152 9.25195C70.5241 9.27474 70.4443 9.30892 70.376 9.35449C70.3076 9.37728 70.2279 9.41146 70.1367 9.45703C69.9316 9.3431 69.8063 9.26335 69.7607 9.21777C69.7152 9.14941 69.6696 9.09245 69.624 9.04688C69.3734 9.06966 69.1455 9.08105 68.9404 9.08105C68.7354 9.05827 68.5417 9.08105 68.3594 9.14941C67.9492 9.0127 67.6644 9.0013 67.5049 9.11523C67.3454 9.22917 67.1403 9.27474 66.8896 9.25195C66.7074 9.11523 66.582 9.06966 66.5137 9.11523C66.4453 9.13802 66.3542 9.13802 66.2402 9.11523C66.0124 8.93294 65.8757 8.86458 65.8301 8.91016C65.7845 8.93294 65.7275 8.95573 65.6592 8.97852C65.5452 8.95573 65.4427 8.94434 65.3516 8.94434C65.2604 8.94434 65.1807 8.96712 65.1123 9.0127C65.0667 9.05827 65.0326 9.12663 65.0098 9.21777C64.987 9.28613 64.9528 9.3431 64.9072 9.38867C65.0439 9.66211 65.0781 9.82161 65.0098 9.86719C64.9642 9.91276 64.9186 9.98112 64.873 10.0723C64.8958 10.1634 64.9186 10.2546 64.9414 10.3457C64.9642 10.4368 64.9642 10.5394 64.9414 10.6533C64.987 10.7673 65.0326 10.8812 65.0781 10.9951C65.1465 11.109 65.1921 11.2344 65.2148 11.3711C65.3288 11.5762 65.3516 11.7015 65.2832 11.7471C65.2376 11.7699 65.1921 11.8154 65.1465 11.8838C65.2148 12.2712 65.2376 12.5446 65.2148 12.7041C65.1921 12.8636 65.2035 13.0345 65.249 13.2168C65.2946 13.2852 65.3174 13.3877 65.3174 13.5244C65.3402 13.6383 65.363 13.7181 65.3857 13.7637C65.3174 13.946 65.3174 14.0371 65.3857 14.0371C65.4541 14.0371 65.5452 14.0371 65.6592 14.0371C65.9554 14.151 66.1377 14.1966 66.2061 14.1738C66.2744 14.151 66.3542 14.1283 66.4453 14.1055C66.5592 13.9915 66.6846 13.9004 66.8213 13.832C66.958 13.7409 67.0947 13.6497 67.2314 13.5586C67.5277 13.6953 67.6986 13.7295 67.7441 13.6611C67.8125 13.5928 67.9036 13.5928 68.0176 13.6611C68.1771 13.8206 68.2796 13.8662 68.3252 13.7979C68.3708 13.7067 68.4619 13.6611 68.5986 13.6611C68.7126 13.57 68.8151 13.4788 68.9062 13.3877C69.0202 13.2965 69.1227 13.194 69.2139 13.0801C69.3962 12.9889 69.5671 12.8864 69.7266 12.7725C69.8861 12.6357 70.0684 12.5446 70.2734 12.499C70.5013 12.6585 70.5811 12.7725 70.5127 12.8408C70.5355 13.0231 70.4899 13.1484 70.376 13.2168C70.2848 13.2852 70.2165 13.3649 70.1709 13.4561C70.0798 13.7523 70 13.9574 69.9316 14.0713C69.8633 14.1852 69.7835 14.2992 69.6924 14.4131C69.7835 14.6637 69.7607 14.8802 69.624 15.0625C69.4873 15.222 69.3848 15.3929 69.3164 15.5752C69.2936 15.8714 69.2936 16.1107 69.3164 16.293C69.3392 16.4753 69.2822 16.6348 69.1455 16.7715C69.0544 17.0221 68.9518 17.1475 68.8379 17.1475C68.7467 17.1475 68.6784 17.1702 68.6328 17.2158C68.3366 17.2386 68.1543 17.2614 68.0859 17.2842C68.0404 17.307 67.9948 17.307 67.9492 17.2842L67.5049 17.0791C67.3226 17.1247 67.2087 17.1361 67.1631 17.1133C67.1175 17.0905 67.0605 17.0791 66.9922 17.0791C66.8783 17.1019 66.7757 17.1475 66.6846 17.2158C66.5934 17.2842 66.4795 17.307 66.3428 17.2842C66.1377 17.1475 65.9896 17.1019 65.8984 17.1475C65.8073 17.1702 65.7389 17.1133 65.6934 16.9766C65.7389 16.9082 65.8073 16.874 65.8984 16.874C65.9896 16.8512 66.0352 16.7829 66.0352 16.6689C65.8984 16.6462 65.7845 16.6803 65.6934 16.7715C65.6022 16.8626 65.4997 16.9196 65.3857 16.9424C65.2946 17.2386 65.2262 17.4209 65.1807 17.4893C65.1351 17.5348 65.1009 17.6146 65.0781 17.7285C65.0781 17.8424 65.1009 17.9222 65.1465 17.9678C65.1921 18.0133 65.2148 18.0817 65.2148 18.1729C65.2376 18.3096 65.1921 18.4349 65.0781 18.5488C64.9642 18.6628 64.873 18.7995 64.8047 18.959C64.7819 19.0501 64.7591 19.1299 64.7363 19.1982C64.7363 19.2666 64.7363 19.3577 64.7363 19.4717C64.873 19.6768 64.9186 19.8135 64.873 19.8818C64.8275 19.9274 64.8047 19.9958 64.8047 20.0869C64.9642 20.3148 65.0326 20.4515 65.0098 20.4971C64.987 20.5426 64.9756 20.611 64.9756 20.7021C65.1123 21.0439 65.1921 21.2376 65.2148 21.2832C65.1921 21.4655 65.1693 21.5908 65.1465 21.6592C65.1237 21.7048 65.1009 21.7503 65.0781 21.7959C65.2376 22.0921 65.2946 22.263 65.249 22.3086C65.2262 22.3314 65.2148 22.3997 65.2148 22.5137C65.1693 23.015 65.1465 23.4365 65.1465 23.7783C65.1921 23.9606 65.1921 24.1429 65.1465 24.3252C65.1237 24.4847 65.0895 24.6328 65.0439 24.7695C65.0895 25.0202 65.0895 25.2025 65.0439 25.3164C65.1351 25.4987 65.1807 25.6696 65.1807 25.8291C65.2262 25.8747 65.249 25.943 65.249 26.0342C65.2718 26.1253 65.2376 26.1937 65.1465 26.2393C64.8275 26.2165 64.5654 26.2165 64.3604 26.2393C64.1781 26.2848 64.0299 26.2507 63.916 26.1367C63.8249 26.1595 63.7337 26.1823 63.6426 26.2051C63.5742 26.2279 63.4945 26.2507 63.4033 26.2734C63.2438 26.2279 63.0843 26.2279 62.9248 26.2734C62.7881 26.319 62.64 26.3418 62.4805 26.3418C62.1615 26.2507 61.9564 26.2507 61.8652 26.3418C61.7741 26.4329 61.6374 26.4899 61.4551 26.5127C60.9766 26.376 60.5664 26.2848 60.2246 26.2393C59.9056 26.2165 59.6436 26.2848 59.4385 26.4443C59.1878 26.376 59.0511 26.3304 59.0283 26.3076C58.846 26.3532 58.7093 26.4329 58.6182 26.5469C58.5042 26.6836 58.3219 26.7292 58.0713 26.6836C58.1852 26.4557 58.2764 26.319 58.3447 26.2734C58.3903 26.2507 58.4359 26.2165 58.4814 26.1709C58.5726 26.1253 58.6637 26.057 58.7549 25.9658C58.846 25.8747 58.9486 25.8063 59.0625 25.7607C59.3815 25.8291 59.5866 25.8291 59.6777 25.7607C59.7689 25.6924 59.8714 25.6354 59.9854 25.5898C59.9854 25.3848 59.9854 25.2025 59.9854 25.043C60.1221 24.9974 60.2246 24.9176 60.293 24.8037C60.2246 24.7126 60.2132 24.6214 60.2588 24.5303C60.3044 24.4391 60.3727 24.3708 60.4639 24.3252C60.5778 24.2796 60.6803 24.2682 60.7715 24.291C60.8626 24.3138 60.9196 24.3936 60.9424 24.5303C61.1019 24.4847 61.193 24.3708 61.2158 24.1885C61.2614 24.0062 61.3411 23.8581 61.4551 23.7441C61.4095 23.6074 61.3639 23.5277 61.3184 23.5049C61.2956 23.4821 61.2842 23.4479 61.2842 23.4023C61.2158 23.1289 61.2272 22.958 61.3184 22.8896C61.4095 22.8213 61.4437 22.696 61.4209 22.5137C61.3525 22.2402 61.307 22.0807 61.2842 22.0352C61.2614 21.9896 61.25 21.9212 61.25 21.8301C61.2956 21.6934 61.307 21.5566 61.2842 21.4199C61.307 21.3288 61.3639 21.2148 61.4551 21.0781C61.4095 20.7591 61.4095 20.4515 61.4551 20.1553C61.5234 19.859 61.5804 19.5514 61.626 19.2324C61.6943 19.1413 61.7285 18.9932 61.7285 18.7881C61.5462 18.9476 61.4095 19.0046 61.3184 18.959C61.3184 18.7767 61.3753 18.64 61.4893 18.5488C61.6032 18.4577 61.6829 18.3438 61.7285 18.207C61.6374 17.9564 61.5804 17.7855 61.5576 17.6943C61.5576 17.5804 61.5804 17.5007 61.626 17.4551C61.626 17.3867 61.5918 17.3298 61.5234 17.2842C61.4551 17.2386 61.4437 17.1589 61.4893 17.0449C61.3298 16.7487 61.307 16.5664 61.4209 16.498C61.5348 16.4069 61.6146 16.2816 61.6602 16.1221C61.6374 15.9398 61.5918 15.7803 61.5234 15.6436C61.4779 15.5068 61.4665 15.3473 61.4893 15.165C61.4437 14.8688 61.4551 14.6523 61.5234 14.5156C61.3411 14.3333 61.2842 14.0941 61.3525 13.7979C61.307 13.3877 61.2956 13.0915 61.3184 12.9092C61.3639 12.7041 61.4437 12.5332 61.5576 12.3965C61.5576 12.3281 61.5576 12.2598 61.5576 12.1914C61.5576 12.1003 61.5462 12.0205 61.5234 11.9521C61.5234 11.7015 61.5234 11.542 61.5234 11.4736C61.5462 11.3597 61.5804 11.2799 61.626 11.2344C61.6943 11.166 61.7513 11.0977 61.7969 11.0293C61.7513 10.9154 61.6829 10.8242 61.5918 10.7559C61.5007 10.6875 61.4437 10.585 61.4209 10.4482C61.2842 10.266 61.2386 10.1634 61.2842 10.1406C61.3525 10.1178 61.3981 10.0837 61.4209 10.0381C61.3298 9.81022 61.307 9.6735 61.3525 9.62793C61.3981 9.55957 61.4323 9.46842 61.4551 9.35449C61.4095 9.24056 61.3411 9.1722 61.25 9.14941C61.1816 9.10384 61.1133 9.04688 61.0449 8.97852C61.0221 8.81901 60.9652 8.70508 60.874 8.63672C60.8057 8.56836 60.7601 8.45443 60.7373 8.29492C60.5778 8.06706 60.5094 7.94173 60.5322 7.91895C60.3499 7.80501 60.2474 7.73665 60.2246 7.71387C60.2018 7.66829 60.1904 7.62272 60.1904 7.57715C59.9854 7.62272 59.7917 7.59993 59.6094 7.50879C59.4499 7.39486 59.3359 7.28092 59.2676 7.16699C59.0853 7.05306 58.9486 6.95052 58.8574 6.85938C58.7891 6.79102 58.6979 6.74544 58.584 6.72266C58.4473 6.67708 58.4017 6.58594 58.4473 6.44922C58.7435 6.44922 58.9372 6.38086 59.0283 6.24414C59.1423 6.3125 59.2562 6.3125 59.3701 6.24414C59.4613 6.17578 59.5638 6.15299 59.6777 6.17578C59.7689 6.17578 59.8486 6.20996 59.917 6.27832C60.0081 6.34668 60.1335 6.36947 60.293 6.34668C60.4525 6.20996 60.612 6.17578 60.7715 6.24414C60.8854 6.22135 60.9766 6.18717 61.0449 6.1416C61.1133 6.07324 61.2044 6.02767 61.3184 6.00488C61.3639 6.05046 61.4437 6.07324 61.5576 6.07324C61.6715 6.05046 61.7741 6.05046 61.8652 6.07324C61.9792 6.02767 62.1045 5.95931 62.2412 5.86816C62.3779 5.77702 62.5146 5.77702 62.6514 5.86816C62.6969 5.9821 62.6969 6.07324 62.6514 6.1416C62.6058 6.20996 62.5716 6.28971 62.5488 6.38086C62.7995 6.35807 62.9818 6.33529 63.0957 6.3125C63.2096 6.26693 63.3236 6.23275 63.4375 6.20996C63.5514 6.27832 63.7679 6.28971 64.0869 6.24414C64.2236 6.22135 64.3376 6.18717 64.4287 6.1416C64.5426 6.09603 64.6566 6.13021 64.7705 6.24414C64.9072 6.40365 65.0212 6.46061 65.1123 6.41504C65.2035 6.34668 65.306 6.27832 65.4199 6.20996C65.5794 6.23275 65.7275 6.22135 65.8643 6.17578C66.0238 6.13021 66.1947 6.13021 66.377 6.17578C66.5365 6.15299 66.6846 6.09603 66.8213 6.00488C66.9808 5.91374 67.1289 5.92513 67.2656 6.03906C67.4479 6.24414 67.6416 6.32389 67.8467 6.27832C68.0518 6.20996 68.2454 6.19857 68.4277 6.24414C68.5417 6.24414 68.6556 6.24414 68.7695 6.24414C68.8835 6.22135 68.986 6.23275 69.0771 6.27832C69.2139 6.1416 69.3734 6.02767 69.5557 5.93652C69.7607 5.84538 69.9658 5.76562 70.1709 5.69727C70.2848 5.67448 70.3646 5.68587 70.4102 5.73145C70.4557 5.75423 70.5241 5.76562 70.6152 5.76562C70.752 5.62891 70.8431 5.54915 70.8887 5.52637C70.9342 5.48079 70.9798 5.43522 71.0254 5.38965C71.3216 5.32129 71.5267 5.25293 71.6406 5.18457C71.7773 5.09342 71.9255 4.99089 72.085 4.87695C72.1533 4.76302 72.2217 4.67188 72.29 4.60352C72.3812 4.51237 72.4723 4.43262 72.5635 4.36426C72.5635 4.11361 72.6318 3.9541 72.7686 3.88574C72.9053 3.7946 73.0192 3.68066 73.1104 3.54395C73.0876 3.49837 73.0534 3.44141 73.0078 3.37305C72.9622 3.30469 72.9622 3.23633 73.0078 3.16797C73.1217 3.14518 73.2243 3.15658 73.3154 3.20215C73.4294 3.24772 73.5205 3.29329 73.5889 3.33887C73.6117 3.58952 73.6572 3.70345 73.7256 3.68066C73.7939 3.63509 73.8395 3.63509 73.8623 3.68066C73.8623 3.81738 73.8053 3.89714 73.6914 3.91992C73.5775 3.91992 73.4749 3.94271 73.3838 3.98828C73.2926 4.125 73.2129 4.27311 73.1445 4.43262C73.099 4.56934 73.0876 4.72884 73.1104 4.91113C73.0648 5.00228 73.0192 5.08203 72.9736 5.15039C72.9281 5.21875 72.9053 5.3099 72.9053 5.42383C72.7686 5.65169 72.6774 5.77702 72.6318 5.7998C72.609 5.82259 72.5635 5.82259 72.4951 5.7998C72.4723 6.1416 72.4837 6.34668 72.5293 6.41504C72.5977 6.46061 72.6432 6.52897 72.666 6.62012C72.6432 6.73405 72.5749 6.79102 72.4609 6.79102C72.3698 6.79102 72.29 6.8138 72.2217 6.85938C72.1989 6.92773 72.1875 6.99609 72.1875 7.06445C72.1875 7.13281 72.1761 7.21257 72.1533 7.30371C71.971 7.46322 71.8343 7.58854 71.7432 7.67969C71.6748 7.77083 71.6406 7.90755 71.6406 8.08984ZM86.6113 15.541C86.6113 15.7233 86.5771 15.86 86.5088 15.9512C86.4404 16.0423 86.4062 16.179 86.4062 16.3613C86.3379 16.6348 86.2923 16.8057 86.2695 16.874C86.2695 16.9196 86.2695 16.988 86.2695 17.0791C86.2923 17.1475 86.3265 17.2272 86.3721 17.3184C86.4176 17.4095 86.4176 17.512 86.3721 17.626C86.167 17.9222 86.0645 18.1842 86.0645 18.4121C86.0645 18.64 86.0303 18.8564 85.9619 19.0615C85.9847 19.1299 86.0189 19.1868 86.0645 19.2324C86.11 19.2552 86.1442 19.3122 86.167 19.4033C86.1442 19.6312 86.0645 19.7907 85.9277 19.8818C85.791 19.973 85.6657 20.0755 85.5518 20.1895C85.6429 20.4401 85.6315 20.6566 85.5176 20.8389C85.5404 21.0895 85.5404 21.3288 85.5176 21.5566C85.4948 21.7617 85.3923 21.8984 85.21 21.9668C85.1644 22.0579 85.1302 22.1605 85.1074 22.2744C85.0846 22.3883 85.0505 22.4909 85.0049 22.582C84.7314 22.8555 84.5036 23.0378 84.3213 23.1289C84.3441 23.3112 84.3099 23.4479 84.2188 23.5391C84.1504 23.6074 84.0592 23.6758 83.9453 23.7441C83.877 23.9264 83.7972 24.0859 83.7061 24.2227C83.4326 24.3138 83.2845 24.3936 83.2617 24.4619C83.2389 24.5075 83.2048 24.5531 83.1592 24.5986C83.0908 24.6898 83.0225 24.7695 82.9541 24.8379C82.8857 24.9062 82.8516 25.0088 82.8516 25.1455C82.6921 25.2822 82.5895 25.362 82.5439 25.3848C82.5212 25.4076 82.487 25.4076 82.4414 25.3848C82.3275 25.4987 82.2363 25.624 82.168 25.7607C82.1224 25.8747 82.054 25.9886 81.9629 26.1025C81.849 26.1709 81.7236 26.1823 81.5869 26.1367C81.473 26.1139 81.359 26.1253 81.2451 26.1709C81.0628 26.1709 80.9489 26.1823 80.9033 26.2051C80.8577 26.2279 80.8122 26.2507 80.7666 26.2734C80.5843 26.1823 80.4248 26.1709 80.2881 26.2393C80.1514 26.3304 80.0033 26.3874 79.8438 26.4102C79.5247 26.5924 79.3083 26.638 79.1943 26.5469C79.0804 26.4557 78.9665 26.3646 78.8525 26.2734C78.693 26.319 78.5791 26.3874 78.5107 26.4785C78.4652 26.5924 78.3512 26.638 78.1689 26.6152C78.0778 26.5697 78.0094 26.5013 77.9639 26.4102C77.9411 26.3418 77.8955 26.2848 77.8271 26.2393C77.736 26.3076 77.6221 26.319 77.4854 26.2734C77.3486 26.2507 77.2575 26.1823 77.2119 26.0684C77.0296 26.1139 76.8701 26.0911 76.7334 26C76.6195 25.9316 76.5055 25.8747 76.3916 25.8291C76.2777 25.8747 76.1865 25.8747 76.1182 25.8291C76.0498 25.7835 75.9587 25.7493 75.8447 25.7266C75.7308 25.7038 75.651 25.7266 75.6055 25.7949C75.5599 25.8405 75.4801 25.8519 75.3662 25.8291C75.2751 25.7607 75.2295 25.624 75.2295 25.4189C75.1839 25.3278 75.1156 25.2594 75.0244 25.2139C74.9561 25.1455 74.8877 25.0885 74.8193 25.043C74.7738 24.8607 74.694 24.7126 74.5801 24.5986C74.4661 24.4847 74.375 24.3366 74.3066 24.1543C74.056 23.972 73.8965 23.8581 73.8281 23.8125C73.7598 23.7441 73.7142 23.6644 73.6914 23.5732C73.5319 23.4137 73.3382 23.277 73.1104 23.1631C72.9053 23.0492 72.7458 22.901 72.6318 22.7188C72.7002 22.4909 72.7572 22.2972 72.8027 22.1377C72.5977 21.682 72.4495 21.3402 72.3584 21.1123C72.404 20.9072 72.3926 20.7363 72.3242 20.5996C72.2559 20.4629 72.1647 20.3376 72.0508 20.2236C72.0736 20.1097 72.0736 20.0072 72.0508 19.916C72.0508 19.8021 72.0736 19.6768 72.1191 19.54C72.0964 19.4489 72.0622 19.3805 72.0166 19.335C71.9938 19.2894 71.971 19.2324 71.9482 19.1641C71.9027 18.9362 71.8457 18.7881 71.7773 18.7197C71.7318 18.6514 71.6862 18.5602 71.6406 18.4463C71.6406 18.3324 71.6292 18.2412 71.6064 18.1729C71.6064 18.0817 71.6292 17.9792 71.6748 17.8652C71.6292 17.7513 71.5951 17.6488 71.5723 17.5576C71.5723 17.4437 71.5495 17.3298 71.5039 17.2158C71.5723 16.8968 71.5609 16.6006 71.4697 16.3271C71.3786 16.0537 71.39 15.7689 71.5039 15.4727C71.6634 15.1536 71.7204 14.8574 71.6748 14.584C71.652 14.2878 71.6292 14.0143 71.6064 13.7637C71.7432 13.4219 71.8001 13.1484 71.7773 12.9434C71.7546 12.7383 71.766 12.5332 71.8115 12.3281C71.8571 12.1914 71.9027 12.0661 71.9482 11.9521C72.0166 11.8154 72.085 11.6901 72.1533 11.5762C72.1305 11.485 72.1191 11.4167 72.1191 11.3711C72.1419 11.3027 72.1533 11.2116 72.1533 11.0977C72.3584 10.8014 72.4951 10.471 72.5635 10.1064C72.6546 9.71908 72.7913 9.38867 72.9736 9.11523C73.2243 8.79622 73.418 8.55697 73.5547 8.39746C73.6914 8.21517 73.8281 8.03288 73.9648 7.85059C74.1471 7.73665 74.2497 7.63411 74.2725 7.54297C74.2952 7.42904 74.3408 7.3265 74.4092 7.23535C74.5231 7.18978 74.5915 7.12142 74.6143 7.03027C74.6598 6.93913 74.7396 6.87077 74.8535 6.8252C74.8763 6.71126 74.9447 6.59733 75.0586 6.4834L75.4688 6.38086C75.5371 6.24414 75.5941 6.11882 75.6396 6.00488C75.708 5.89095 75.8105 5.8112 75.9473 5.76562C76.2663 5.78841 76.46 5.74284 76.5283 5.62891C76.6195 5.49219 76.779 5.44661 77.0068 5.49219C77.1208 5.44661 77.2119 5.35547 77.2803 5.21875C77.3486 5.05924 77.474 5.00228 77.6562 5.04785C77.8158 5.2985 77.9297 5.41243 77.998 5.38965C78.0892 5.34408 78.1576 5.2985 78.2031 5.25293C78.2715 5.25293 78.3398 5.25293 78.4082 5.25293C78.4766 5.23014 78.5563 5.21875 78.6475 5.21875C78.7386 5.19596 78.7956 5.17318 78.8184 5.15039C78.8639 5.1276 78.9323 5.1276 79.0234 5.15039C79.1374 5.19596 79.2057 5.25293 79.2285 5.32129C79.2513 5.38965 79.2969 5.44661 79.3652 5.49219C79.4792 5.51497 79.5703 5.44661 79.6387 5.28711C79.7298 5.1276 79.8324 5.05924 79.9463 5.08203C80.2197 5.24154 80.4362 5.34408 80.5957 5.38965C80.7552 5.41243 80.8691 5.48079 80.9375 5.59473C81.1426 5.54915 81.2451 5.53776 81.2451 5.56055C81.2679 5.58333 81.3021 5.60612 81.3477 5.62891C81.6439 5.85677 81.8945 6.00488 82.0996 6.07324C82.3275 6.11882 82.4756 6.24414 82.5439 6.44922C82.6579 6.49479 82.7718 6.54036 82.8857 6.58594C82.9997 6.60872 83.1022 6.6543 83.1934 6.72266C83.2845 6.99609 83.3643 7.13281 83.4326 7.13281C83.5238 7.13281 83.6035 7.1556 83.6719 7.20117C83.7174 7.33789 83.7858 7.45182 83.877 7.54297C83.9681 7.63411 84.0365 7.75944 84.082 7.91895C84.2643 8.21517 84.4352 8.40885 84.5947 8.5C84.5947 8.65951 84.6289 8.78483 84.6973 8.87598C84.7884 8.94434 84.8226 9.06966 84.7998 9.25195C84.8454 9.41146 84.9251 9.53678 85.0391 9.62793C85.153 9.69629 85.2669 9.78743 85.3809 9.90137C85.5632 9.90137 85.6657 9.91276 85.6885 9.93555C85.7113 9.93555 85.7454 9.95833 85.791 10.0039C85.6771 10.4141 85.6657 10.8128 85.7568 11.2002C85.8708 11.5648 85.9163 11.9635 85.8936 12.3965C85.9163 12.4648 85.9505 12.5104 85.9961 12.5332C86.0645 12.556 86.1214 12.6016 86.167 12.6699C86.1214 12.9206 86.1556 13.1257 86.2695 13.2852C86.2695 13.4219 86.2695 13.57 86.2695 13.7295C86.2695 13.8662 86.2923 13.9915 86.3379 14.1055C86.5202 14.3789 86.5885 14.5726 86.543 14.6865C86.4974 14.7777 86.4518 14.8802 86.4062 14.9941C86.4518 15.2448 86.486 15.3929 86.5088 15.4385C86.5544 15.4613 86.5885 15.4954 86.6113 15.541ZM82.5098 16.9766C82.6237 16.7259 82.6579 16.5778 82.6123 16.5322C82.5895 16.4639 82.5781 16.3955 82.5781 16.3271C82.6237 16.1904 82.6579 16.0651 82.6807 15.9512C82.7262 15.8145 82.7148 15.6777 82.6465 15.541C82.6237 15.222 82.6123 14.9941 82.6123 14.8574C82.4984 14.7207 82.4072 14.5612 82.3389 14.3789C82.2933 14.1966 82.2819 13.9801 82.3047 13.7295C82.3503 13.5928 82.373 13.4561 82.373 13.3193C82.3958 13.1826 82.43 13.0573 82.4756 12.9434C82.1338 12.6927 81.9401 12.4762 81.8945 12.2939C81.8717 12.1117 81.8376 11.9294 81.792 11.7471C81.7464 11.4508 81.6895 11.2458 81.6211 11.1318C81.5755 10.9951 81.5527 10.8356 81.5527 10.6533C81.4388 10.3799 81.359 10.1976 81.3135 10.1064C81.0628 9.87858 80.9261 9.73047 80.9033 9.66211C80.9033 9.59375 80.8805 9.514 80.835 9.42285C80.7894 9.35449 80.7438 9.29753 80.6982 9.25195C80.6527 9.18359 80.6071 9.11523 80.5615 9.04688C80.3564 8.86458 80.2197 8.72786 80.1514 8.63672C80.083 8.52279 79.9805 8.44303 79.8438 8.39746C79.4792 8.35189 79.2513 8.30632 79.1602 8.26074C78.9551 8.30632 78.8411 8.34049 78.8184 8.36328C78.7956 8.38607 78.7386 8.39746 78.6475 8.39746H78.1348C77.9753 8.57975 77.8613 8.65951 77.793 8.63672C77.7474 8.61393 77.7018 8.59115 77.6562 8.56836C77.5879 8.63672 77.5651 8.71647 77.5879 8.80762C77.6107 8.87598 77.6335 8.94434 77.6562 9.0127C77.5195 9.08105 77.4284 9.10384 77.3828 9.08105C77.36 9.05827 77.3145 9.04688 77.2461 9.04688C77.0866 9.27474 76.9727 9.45703 76.9043 9.59375C76.8359 9.93555 76.722 10.1634 76.5625 10.2773C76.4258 10.3685 76.3346 10.5166 76.2891 10.7217C76.3346 10.904 76.3005 11.0635 76.1865 11.2002C76.0954 11.3141 76.0042 11.4281 75.9131 11.542C76.0042 11.861 75.9814 12.1344 75.8447 12.3623C75.7308 12.5902 75.6169 12.7725 75.5029 12.9092C75.5257 13.1826 75.5029 13.3649 75.4346 13.4561C75.389 13.5244 75.332 13.6156 75.2637 13.7295C75.2181 13.8434 75.2295 13.9346 75.2979 14.0029C75.3662 14.0713 75.4118 14.151 75.4346 14.2422C75.4118 14.3561 75.3662 14.4473 75.2979 14.5156C75.2523 14.5612 75.2181 14.641 75.1953 14.7549C75.2181 14.8232 75.2409 14.8916 75.2637 14.96C75.3092 15.0283 75.332 15.1081 75.332 15.1992C75.332 15.3132 75.3092 15.4043 75.2637 15.4727C75.2181 15.5182 75.1839 15.5866 75.1611 15.6777C75.2067 15.7689 75.2637 15.8486 75.332 15.917C75.4232 15.9626 75.4688 16.0423 75.4688 16.1562C75.3776 16.4753 75.332 16.7145 75.332 16.874C75.3548 17.0107 75.3662 17.1702 75.3662 17.3525C75.4574 17.6943 75.4801 17.9336 75.4346 18.0703C75.4118 18.207 75.3776 18.3324 75.332 18.4463C75.3548 18.5602 75.389 18.6514 75.4346 18.7197C75.5029 18.7881 75.5599 18.8792 75.6055 18.9932C75.5827 19.1071 75.5713 19.2096 75.5713 19.3008C75.5941 19.3691 75.6055 19.4717 75.6055 19.6084C75.7194 19.7679 75.7992 19.8704 75.8447 19.916C75.9131 19.9388 75.9587 19.9958 75.9814 20.0869C75.9814 20.1781 75.9814 20.2692 75.9814 20.3604C75.9814 20.4515 75.9928 20.5199 76.0156 20.5654C76.3118 20.611 76.4372 20.8047 76.3916 21.1465C76.46 21.2376 76.5169 21.3288 76.5625 21.4199C76.6309 21.4883 76.6764 21.5908 76.6992 21.7275C76.8587 21.7503 76.9499 21.8415 76.9727 22.001C77.0182 22.1605 77.0296 22.32 77.0068 22.4795C77.0752 22.5251 77.1436 22.582 77.2119 22.6504C77.3031 22.696 77.4056 22.696 77.5195 22.6504C77.6335 22.696 77.7132 22.7757 77.7588 22.8896C77.8044 23.0036 77.8613 23.1061 77.9297 23.1973C78.0664 23.1745 78.1917 23.1403 78.3057 23.0947C78.4424 23.0492 78.5677 23.0605 78.6816 23.1289C78.9779 23.0605 79.1488 23.0605 79.1943 23.1289C79.2399 23.1745 79.3083 23.2087 79.3994 23.2314C79.4906 23.2087 79.5475 23.1745 79.5703 23.1289C79.6159 23.0605 79.6729 23.0036 79.7412 22.958C79.9691 22.958 80.1286 22.9238 80.2197 22.8555C80.4248 22.7871 80.5501 22.6846 80.5957 22.5479C80.7324 22.3656 80.8122 22.2516 80.835 22.2061C80.8805 22.1605 80.9261 22.1149 80.9717 22.0693C81.0173 21.9554 81.0628 21.8643 81.1084 21.7959C81.1768 21.7275 81.2451 21.6592 81.3135 21.5908C81.5413 21.3857 81.6325 21.2035 81.5869 21.0439C81.5641 20.8617 81.6097 20.7135 81.7236 20.5996C81.9059 20.2122 82.0312 19.9616 82.0996 19.8477C82.0768 19.7565 82.0768 19.6654 82.0996 19.5742C82.1224 19.4831 82.1338 19.3805 82.1338 19.2666C82.2705 18.9704 82.3617 18.7539 82.4072 18.6172C82.4756 18.4577 82.5326 18.2868 82.5781 18.1045C82.5326 17.9678 82.487 17.8197 82.4414 17.6602C82.3958 17.5007 82.4186 17.3525 82.5098 17.2158V16.9766ZM103.188 15.541C103.188 15.7233 103.154 15.86 103.086 15.9512C103.018 16.0423 102.983 16.179 102.983 16.3613C102.915 16.6348 102.869 16.8057 102.847 16.874C102.847 16.9196 102.847 16.988 102.847 17.0791C102.869 17.1475 102.904 17.2272 102.949 17.3184C102.995 17.4095 102.995 17.512 102.949 17.626C102.744 17.9222 102.642 18.1842 102.642 18.4121C102.642 18.64 102.607 18.8564 102.539 19.0615C102.562 19.1299 102.596 19.1868 102.642 19.2324C102.687 19.2552 102.721 19.3122 102.744 19.4033C102.721 19.6312 102.642 19.7907 102.505 19.8818C102.368 19.973 102.243 20.0755 102.129 20.1895C102.22 20.4401 102.209 20.6566 102.095 20.8389C102.118 21.0895 102.118 21.3288 102.095 21.5566C102.072 21.7617 101.969 21.8984 101.787 21.9668C101.742 22.0579 101.707 22.1605 101.685 22.2744C101.662 22.3883 101.628 22.4909 101.582 22.582C101.309 22.8555 101.081 23.0378 100.898 23.1289C100.921 23.3112 100.887 23.4479 100.796 23.5391C100.728 23.6074 100.636 23.6758 100.522 23.7441C100.454 23.9264 100.374 24.0859 100.283 24.2227C100.01 24.3138 99.8617 24.3936 99.8389 24.4619C99.8161 24.5075 99.7819 24.5531 99.7363 24.5986C99.668 24.6898 99.5996 24.7695 99.5312 24.8379C99.4629 24.9062 99.4287 25.0088 99.4287 25.1455C99.2692 25.2822 99.1667 25.362 99.1211 25.3848C99.0983 25.4076 99.0641 25.4076 99.0186 25.3848C98.9046 25.4987 98.8135 25.624 98.7451 25.7607C98.6995 25.8747 98.6312 25.9886 98.54 26.1025C98.4261 26.1709 98.3008 26.1823 98.1641 26.1367C98.0501 26.1139 97.9362 26.1253 97.8223 26.1709C97.64 26.1709 97.526 26.1823 97.4805 26.2051C97.4349 26.2279 97.3893 26.2507 97.3438 26.2734C97.1615 26.1823 97.002 26.1709 96.8652 26.2393C96.7285 26.3304 96.5804 26.3874 96.4209 26.4102C96.1019 26.5924 95.8854 26.638 95.7715 26.5469C95.6576 26.4557 95.5436 26.3646 95.4297 26.2734C95.2702 26.319 95.1562 26.3874 95.0879 26.4785C95.0423 26.5924 94.9284 26.638 94.7461 26.6152C94.6549 26.5697 94.5866 26.5013 94.541 26.4102C94.5182 26.3418 94.4727 26.2848 94.4043 26.2393C94.3132 26.3076 94.1992 26.319 94.0625 26.2734C93.9258 26.2507 93.8346 26.1823 93.7891 26.0684C93.6068 26.1139 93.4473 26.0911 93.3105 26C93.1966 25.9316 93.0827 25.8747 92.9688 25.8291C92.8548 25.8747 92.7637 25.8747 92.6953 25.8291C92.627 25.7835 92.5358 25.7493 92.4219 25.7266C92.3079 25.7038 92.2282 25.7266 92.1826 25.7949C92.137 25.8405 92.0573 25.8519 91.9434 25.8291C91.8522 25.7607 91.8066 25.624 91.8066 25.4189C91.7611 25.3278 91.6927 25.2594 91.6016 25.2139C91.5332 25.1455 91.4648 25.0885 91.3965 25.043C91.3509 24.8607 91.2712 24.7126 91.1572 24.5986C91.0433 24.4847 90.9521 24.3366 90.8838 24.1543C90.6331 23.972 90.4736 23.8581 90.4053 23.8125C90.3369 23.7441 90.2913 23.6644 90.2686 23.5732C90.109 23.4137 89.9154 23.277 89.6875 23.1631C89.4824 23.0492 89.3229 22.901 89.209 22.7188C89.2773 22.4909 89.3343 22.2972 89.3799 22.1377C89.1748 21.682 89.0267 21.3402 88.9355 21.1123C88.9811 20.9072 88.9697 20.7363 88.9014 20.5996C88.833 20.4629 88.7419 20.3376 88.6279 20.2236C88.6507 20.1097 88.6507 20.0072 88.6279 19.916C88.6279 19.8021 88.6507 19.6768 88.6963 19.54C88.6735 19.4489 88.6393 19.3805 88.5938 19.335C88.571 19.2894 88.5482 19.2324 88.5254 19.1641C88.4798 18.9362 88.4229 18.7881 88.3545 18.7197C88.3089 18.6514 88.2633 18.5602 88.2178 18.4463C88.2178 18.3324 88.2064 18.2412 88.1836 18.1729C88.1836 18.0817 88.2064 17.9792 88.252 17.8652C88.2064 17.7513 88.1722 17.6488 88.1494 17.5576C88.1494 17.4437 88.1266 17.3298 88.0811 17.2158C88.1494 16.8968 88.138 16.6006 88.0469 16.3271C87.9557 16.0537 87.9671 15.7689 88.0811 15.4727C88.2406 15.1536 88.2975 14.8574 88.252 14.584C88.2292 14.2878 88.2064 14.0143 88.1836 13.7637C88.3203 13.4219 88.3773 13.1484 88.3545 12.9434C88.3317 12.7383 88.3431 12.5332 88.3887 12.3281C88.4342 12.1914 88.4798 12.0661 88.5254 11.9521C88.5938 11.8154 88.6621 11.6901 88.7305 11.5762C88.7077 11.485 88.6963 11.4167 88.6963 11.3711C88.7191 11.3027 88.7305 11.2116 88.7305 11.0977C88.9355 10.8014 89.0723 10.471 89.1406 10.1064C89.2318 9.71908 89.3685 9.38867 89.5508 9.11523C89.8014 8.79622 89.9951 8.55697 90.1318 8.39746C90.2686 8.21517 90.4053 8.03288 90.542 7.85059C90.7243 7.73665 90.8268 7.63411 90.8496 7.54297C90.8724 7.42904 90.918 7.3265 90.9863 7.23535C91.1003 7.18978 91.1686 7.12142 91.1914 7.03027C91.237 6.93913 91.3167 6.87077 91.4307 6.8252C91.4535 6.71126 91.5218 6.59733 91.6357 6.4834L92.0459 6.38086C92.1143 6.24414 92.1712 6.11882 92.2168 6.00488C92.2852 5.89095 92.3877 5.8112 92.5244 5.76562C92.8434 5.78841 93.0371 5.74284 93.1055 5.62891C93.1966 5.49219 93.3561 5.44661 93.584 5.49219C93.6979 5.44661 93.7891 5.35547 93.8574 5.21875C93.9258 5.05924 94.0511 5.00228 94.2334 5.04785C94.3929 5.2985 94.5068 5.41243 94.5752 5.38965C94.6663 5.34408 94.7347 5.2985 94.7803 5.25293C94.8486 5.25293 94.917 5.25293 94.9854 5.25293C95.0537 5.23014 95.1335 5.21875 95.2246 5.21875C95.3158 5.19596 95.3727 5.17318 95.3955 5.15039C95.4411 5.1276 95.5094 5.1276 95.6006 5.15039C95.7145 5.19596 95.7829 5.25293 95.8057 5.32129C95.8285 5.38965 95.874 5.44661 95.9424 5.49219C96.0563 5.51497 96.1475 5.44661 96.2158 5.28711C96.307 5.1276 96.4095 5.05924 96.5234 5.08203C96.7969 5.24154 97.0133 5.34408 97.1729 5.38965C97.3324 5.41243 97.4463 5.48079 97.5146 5.59473C97.7197 5.54915 97.8223 5.53776 97.8223 5.56055C97.8451 5.58333 97.8792 5.60612 97.9248 5.62891C98.221 5.85677 98.4717 6.00488 98.6768 6.07324C98.9046 6.11882 99.0527 6.24414 99.1211 6.44922C99.235 6.49479 99.349 6.54036 99.4629 6.58594C99.5768 6.60872 99.6794 6.6543 99.7705 6.72266C99.8617 6.99609 99.9414 7.13281 100.01 7.13281C100.101 7.13281 100.181 7.1556 100.249 7.20117C100.295 7.33789 100.363 7.45182 100.454 7.54297C100.545 7.63411 100.614 7.75944 100.659 7.91895C100.841 8.21517 101.012 8.40885 101.172 8.5C101.172 8.65951 101.206 8.78483 101.274 8.87598C101.366 8.94434 101.4 9.06966 101.377 9.25195C101.423 9.41146 101.502 9.53678 101.616 9.62793C101.73 9.69629 101.844 9.78743 101.958 9.90137C102.14 9.90137 102.243 9.91276 102.266 9.93555C102.288 9.93555 102.323 9.95833 102.368 10.0039C102.254 10.4141 102.243 10.8128 102.334 11.2002C102.448 11.5648 102.493 11.9635 102.471 12.3965C102.493 12.4648 102.528 12.5104 102.573 12.5332C102.642 12.556 102.699 12.6016 102.744 12.6699C102.699 12.9206 102.733 13.1257 102.847 13.2852C102.847 13.4219 102.847 13.57 102.847 13.7295C102.847 13.8662 102.869 13.9915 102.915 14.1055C103.097 14.3789 103.166 14.5726 103.12 14.6865C103.075 14.7777 103.029 14.8802 102.983 14.9941C103.029 15.2448 103.063 15.3929 103.086 15.4385C103.132 15.4613 103.166 15.4954 103.188 15.541ZM99.0869 16.9766C99.2008 16.7259 99.235 16.5778 99.1895 16.5322C99.1667 16.4639 99.1553 16.3955 99.1553 16.3271C99.2008 16.1904 99.235 16.0651 99.2578 15.9512C99.3034 15.8145 99.292 15.6777 99.2236 15.541C99.2008 15.222 99.1895 14.9941 99.1895 14.8574C99.0755 14.7207 98.9844 14.5612 98.916 14.3789C98.8704 14.1966 98.859 13.9801 98.8818 13.7295C98.9274 13.5928 98.9502 13.4561 98.9502 13.3193C98.973 13.1826 99.0072 13.0573 99.0527 12.9434C98.7109 12.6927 98.5173 12.4762 98.4717 12.2939C98.4489 12.1117 98.4147 11.9294 98.3691 11.7471C98.3236 11.4508 98.2666 11.2458 98.1982 11.1318C98.1527 10.9951 98.1299 10.8356 98.1299 10.6533C98.016 10.3799 97.9362 10.1976 97.8906 10.1064C97.64 9.87858 97.5033 9.73047 97.4805 9.66211C97.4805 9.59375 97.4577 9.514 97.4121 9.42285C97.3665 9.35449 97.321 9.29753 97.2754 9.25195C97.2298 9.18359 97.1842 9.11523 97.1387 9.04688C96.9336 8.86458 96.7969 8.72786 96.7285 8.63672C96.6602 8.52279 96.5576 8.44303 96.4209 8.39746C96.0563 8.35189 95.8285 8.30632 95.7373 8.26074C95.5322 8.30632 95.4183 8.34049 95.3955 8.36328C95.3727 8.38607 95.3158 8.39746 95.2246 8.39746H94.7119C94.5524 8.57975 94.4385 8.65951 94.3701 8.63672C94.3245 8.61393 94.279 8.59115 94.2334 8.56836C94.165 8.63672 94.1423 8.71647 94.165 8.80762C94.1878 8.87598 94.2106 8.94434 94.2334 9.0127C94.0967 9.08105 94.0055 9.10384 93.96 9.08105C93.9372 9.05827 93.8916 9.04688 93.8232 9.04688C93.6637 9.27474 93.5498 9.45703 93.4814 9.59375C93.4131 9.93555 93.2992 10.1634 93.1396 10.2773C93.0029 10.3685 92.9118 10.5166 92.8662 10.7217C92.9118 10.904 92.8776 11.0635 92.7637 11.2002C92.6725 11.3141 92.5814 11.4281 92.4902 11.542C92.5814 11.861 92.5586 12.1344 92.4219 12.3623C92.3079 12.5902 92.194 12.7725 92.0801 12.9092C92.1029 13.1826 92.0801 13.3649 92.0117 13.4561C91.9661 13.5244 91.9092 13.6156 91.8408 13.7295C91.7952 13.8434 91.8066 13.9346 91.875 14.0029C91.9434 14.0713 91.9889 14.151 92.0117 14.2422C91.9889 14.3561 91.9434 14.4473 91.875 14.5156C91.8294 14.5612 91.7952 14.641 91.7725 14.7549C91.7952 14.8232 91.818 14.8916 91.8408 14.96C91.8864 15.0283 91.9092 15.1081 91.9092 15.1992C91.9092 15.3132 91.8864 15.4043 91.8408 15.4727C91.7952 15.5182 91.7611 15.5866 91.7383 15.6777C91.7839 15.7689 91.8408 15.8486 91.9092 15.917C92.0003 15.9626 92.0459 16.0423 92.0459 16.1562C91.9548 16.4753 91.9092 16.7145 91.9092 16.874C91.932 17.0107 91.9434 17.1702 91.9434 17.3525C92.0345 17.6943 92.0573 17.9336 92.0117 18.0703C91.9889 18.207 91.9548 18.3324 91.9092 18.4463C91.932 18.5602 91.9661 18.6514 92.0117 18.7197C92.0801 18.7881 92.137 18.8792 92.1826 18.9932C92.1598 19.1071 92.1484 19.2096 92.1484 19.3008C92.1712 19.3691 92.1826 19.4717 92.1826 19.6084C92.2965 19.7679 92.3763 19.8704 92.4219 19.916C92.4902 19.9388 92.5358 19.9958 92.5586 20.0869C92.5586 20.1781 92.5586 20.2692 92.5586 20.3604C92.5586 20.4515 92.57 20.5199 92.5928 20.5654C92.889 20.611 93.0143 20.8047 92.9688 21.1465C93.0371 21.2376 93.0941 21.3288 93.1396 21.4199C93.208 21.4883 93.2536 21.5908 93.2764 21.7275C93.4359 21.7503 93.527 21.8415 93.5498 22.001C93.5954 22.1605 93.6068 22.32 93.584 22.4795C93.6523 22.5251 93.7207 22.582 93.7891 22.6504C93.8802 22.696 93.9827 22.696 94.0967 22.6504C94.2106 22.696 94.2904 22.7757 94.3359 22.8896C94.3815 23.0036 94.4385 23.1061 94.5068 23.1973C94.6436 23.1745 94.7689 23.1403 94.8828 23.0947C95.0195 23.0492 95.1449 23.0605 95.2588 23.1289C95.555 23.0605 95.7259 23.0605 95.7715 23.1289C95.8171 23.1745 95.8854 23.2087 95.9766 23.2314C96.0677 23.2087 96.1247 23.1745 96.1475 23.1289C96.193 23.0605 96.25 23.0036 96.3184 22.958C96.5462 22.958 96.7057 22.9238 96.7969 22.8555C97.002 22.7871 97.1273 22.6846 97.1729 22.5479C97.3096 22.3656 97.3893 22.2516 97.4121 22.2061C97.4577 22.1605 97.5033 22.1149 97.5488 22.0693C97.5944 21.9554 97.64 21.8643 97.6855 21.7959C97.7539 21.7275 97.8223 21.6592 97.8906 21.5908C98.1185 21.3857 98.2096 21.2035 98.1641 21.0439C98.1413 20.8617 98.1868 20.7135 98.3008 20.5996C98.4831 20.2122 98.6084 19.9616 98.6768 19.8477C98.654 19.7565 98.654 19.6654 98.6768 19.5742C98.6995 19.4831 98.7109 19.3805 98.7109 19.2666C98.8477 18.9704 98.9388 18.7539 98.9844 18.6172C99.0527 18.4577 99.1097 18.2868 99.1553 18.1045C99.1097 17.9678 99.0641 17.8197 99.0186 17.6602C98.973 17.5007 98.9958 17.3525 99.0869 17.2158V16.9766ZM118.364 15.917C118.387 16.236 118.364 16.4525 118.296 16.5664C118.228 16.6803 118.171 16.7943 118.125 16.9082C118.125 17.1133 118.091 17.2614 118.022 17.3525C118.068 17.4209 118.091 17.512 118.091 17.626C118.091 17.7171 118.102 17.8083 118.125 17.8994C118.034 18.0589 118.011 18.2184 118.057 18.3779C118.011 18.4235 117.988 18.5033 117.988 18.6172C117.988 18.7083 117.965 18.7881 117.92 18.8564C117.965 19.0387 118.011 19.1755 118.057 19.2666C118.057 19.4945 118.011 19.6995 117.92 19.8818C117.852 20.0641 117.795 20.2578 117.749 20.4629C117.703 20.7819 117.635 20.9756 117.544 21.0439C117.476 21.0895 117.407 21.1465 117.339 21.2148C117.202 21.4427 117.054 21.6478 116.895 21.8301C116.758 22.0124 116.621 22.2061 116.484 22.4111C116.37 22.6618 116.245 22.7871 116.108 22.7871C116.04 22.8555 115.994 22.9466 115.972 23.0605C115.972 23.1745 115.96 23.2884 115.938 23.4023C115.846 23.4935 115.71 23.5846 115.527 23.6758C115.322 24.0176 115.094 24.1999 114.844 24.2227C114.593 24.2227 114.434 24.3252 114.365 24.5303C114.411 24.7581 114.342 24.9062 114.16 24.9746C114.001 25.043 113.818 25.0658 113.613 25.043C113.363 25.2708 113.203 25.3962 113.135 25.4189C112.952 25.6012 112.804 25.7266 112.69 25.7949C112.599 25.8405 112.474 25.8747 112.314 25.8975C112.246 25.8747 112.155 25.8747 112.041 25.8975C111.95 25.8975 111.882 25.8861 111.836 25.8633C111.722 25.9316 111.585 25.9772 111.426 26C111.266 26.0456 111.107 26.0911 110.947 26.1367C110.879 26.1595 110.811 26.1823 110.742 26.2051C110.674 26.2507 110.594 26.262 110.503 26.2393C110.07 26.057 109.751 26.0114 109.546 26.1025C109.341 26.1937 109.124 26.2734 108.896 26.3418C108.783 26.319 108.657 26.2962 108.521 26.2734C108.407 26.2734 108.304 26.2507 108.213 26.2051C107.962 26.2051 107.769 26.2051 107.632 26.2051C107.518 26.2051 107.427 26.2507 107.358 26.3418C107.199 26.319 107.051 26.3076 106.914 26.3076C106.777 26.3076 106.652 26.3076 106.538 26.3076C106.447 26.3532 106.356 26.3874 106.265 26.4102C106.196 26.4557 106.105 26.4899 105.991 26.5127C105.741 26.376 105.581 26.2848 105.513 26.2393C105.444 26.1937 105.365 26.1481 105.273 26.1025C105.114 26.1481 104.989 26.2165 104.897 26.3076C104.806 26.3988 104.647 26.4215 104.419 26.376C104.351 26.3076 104.248 26.262 104.111 26.2393C103.975 26.2165 103.883 26.1595 103.838 26.0684C103.633 26.0684 103.485 26.1025 103.394 26.1709C103.28 26.1481 103.188 26.1481 103.12 26.1709C103.029 26.2165 102.926 26.2393 102.812 26.2393C102.767 25.9658 102.778 25.8291 102.847 25.8291C102.915 25.8291 102.995 25.8291 103.086 25.8291C103.337 25.6012 103.519 25.4303 103.633 25.3164C103.747 25.1797 103.906 25.0885 104.111 25.043C104.408 25.0658 104.613 25.0316 104.727 24.9404C104.863 24.8265 104.989 24.7126 105.103 24.5986C105.239 24.5986 105.342 24.5645 105.41 24.4961C105.501 24.4277 105.581 24.348 105.649 24.2568C105.627 24.0973 105.615 23.9606 105.615 23.8467C105.615 23.71 105.604 23.5846 105.581 23.4707C105.604 23.3796 105.661 23.2656 105.752 23.1289C105.729 23.015 105.684 22.9352 105.615 22.8896C105.57 22.8213 105.524 22.7415 105.479 22.6504C105.501 22.582 105.547 22.5365 105.615 22.5137C105.684 22.4681 105.752 22.4339 105.82 22.4111C105.82 22.1377 105.843 21.9782 105.889 21.9326C105.934 21.8643 105.968 21.7845 105.991 21.6934C106.105 21.3743 106.082 21.1807 105.923 21.1123C105.786 21.0212 105.684 20.8844 105.615 20.7021C105.592 20.5426 105.592 20.4173 105.615 20.3262C105.661 20.235 105.695 20.1325 105.718 20.0186C105.672 19.9046 105.615 19.8249 105.547 19.7793C105.479 19.7109 105.422 19.6198 105.376 19.5059C105.399 19.3919 105.422 19.2894 105.444 19.1982C105.467 19.1071 105.49 19.0046 105.513 18.8906C105.558 18.8451 105.615 18.8109 105.684 18.7881C105.752 18.7425 105.809 18.6969 105.854 18.6514C105.9 18.4691 105.911 18.2868 105.889 18.1045C105.866 17.9222 105.832 17.7399 105.786 17.5576C105.763 17.2386 105.763 16.988 105.786 16.8057C105.809 16.6006 105.843 16.4069 105.889 16.2246C105.866 15.974 105.832 15.7233 105.786 15.4727C105.763 15.222 105.695 15.0055 105.581 14.8232C105.604 14.7777 105.627 14.7207 105.649 14.6523C105.672 14.5612 105.661 14.4928 105.615 14.4473C105.729 14.265 105.798 14.0371 105.82 13.7637C105.843 13.4674 105.798 13.2168 105.684 13.0117C105.729 12.7383 105.775 12.5332 105.82 12.3965C105.82 12.2598 105.809 12.1572 105.786 12.0889C105.786 11.9977 105.786 11.8952 105.786 11.7812C105.877 11.5078 105.9 11.3483 105.854 11.3027C105.832 11.2344 105.843 11.166 105.889 11.0977C105.798 10.9382 105.741 10.7559 105.718 10.5508C105.718 10.3229 105.684 10.1292 105.615 9.96973C105.615 9.76465 105.649 9.60514 105.718 9.49121C105.786 9.37728 105.798 9.20638 105.752 8.97852C105.706 8.86458 105.661 8.76204 105.615 8.6709C105.57 8.55697 105.501 8.45443 105.41 8.36328C105.387 8.24935 105.399 8.10124 105.444 7.91895C105.33 7.8278 105.182 7.83919 105 7.95312C104.818 8.04427 104.681 8.02148 104.59 7.88477C104.59 7.61133 104.51 7.4974 104.351 7.54297C104.214 7.56576 104.111 7.53158 104.043 7.44043C103.929 7.23535 103.826 7.11003 103.735 7.06445C103.667 7.01888 103.656 6.93913 103.701 6.8252C103.405 6.68848 103.2 6.62012 103.086 6.62012C102.972 6.59733 102.926 6.50618 102.949 6.34668C103.018 6.30111 103.12 6.27832 103.257 6.27832C103.371 6.25553 103.473 6.27832 103.564 6.34668C103.724 6.36947 103.849 6.33529 103.94 6.24414C104.032 6.15299 104.157 6.13021 104.316 6.17578C104.704 6.38086 104.989 6.42643 105.171 6.3125C105.353 6.19857 105.592 6.15299 105.889 6.17578C106.094 6.19857 106.208 6.18717 106.23 6.1416C106.253 6.07324 106.299 6.02767 106.367 6.00488C106.846 6.16439 107.176 6.18717 107.358 6.07324C107.563 5.95931 107.803 5.92513 108.076 5.9707C108.213 6.17578 108.327 6.25553 108.418 6.20996C108.509 6.16439 108.6 6.13021 108.691 6.10742C108.805 6.15299 108.908 6.19857 108.999 6.24414C109.09 6.26693 109.193 6.27832 109.307 6.27832C109.694 6.46061 109.956 6.51758 110.093 6.44922C110.229 6.38086 110.412 6.34668 110.64 6.34668C110.799 6.39225 110.993 6.40365 111.221 6.38086C111.449 6.35807 111.585 6.43783 111.631 6.62012C111.745 6.66569 111.847 6.71126 111.938 6.75684C112.03 6.77962 112.144 6.80241 112.28 6.8252C112.326 6.87077 112.371 6.91634 112.417 6.96191C112.485 6.9847 112.542 7.01888 112.588 7.06445C112.77 7.06445 112.918 7.08724 113.032 7.13281C113.146 7.1556 113.215 7.23535 113.237 7.37207C113.693 7.30371 113.921 7.4974 113.921 7.95312C114.035 7.95312 114.172 7.94173 114.331 7.91895C114.491 7.89616 114.604 7.93034 114.673 8.02148C114.787 8.29492 114.901 8.44303 115.015 8.46582C115.151 8.48861 115.243 8.55697 115.288 8.6709C115.311 8.89876 115.356 9.02409 115.425 9.04688C115.516 9.06966 115.573 9.13802 115.596 9.25195C115.618 9.47982 115.675 9.59375 115.767 9.59375C115.858 9.59375 115.915 9.62793 115.938 9.69629C116.029 10.0153 116.131 10.2432 116.245 10.3799C116.382 10.5166 116.507 10.6647 116.621 10.8242C116.803 10.8926 116.986 10.9951 117.168 11.1318C117.282 11.2686 117.362 11.3369 117.407 11.3369C117.476 11.3141 117.533 11.3141 117.578 11.3369C117.76 11.4736 117.84 11.7015 117.817 12.0205C117.795 12.3395 117.749 12.613 117.681 12.8408C117.726 12.932 117.772 13.0117 117.817 13.0801C117.886 13.1484 117.92 13.2396 117.92 13.3535C118.079 13.6042 118.182 13.7523 118.228 13.7979C118.273 13.8206 118.307 13.8548 118.33 13.9004C118.353 14.1055 118.353 14.2878 118.33 14.4473C118.33 14.584 118.296 14.6979 118.228 14.7891C118.341 14.9258 118.398 15.0169 118.398 15.0625C118.398 15.0853 118.41 15.1195 118.433 15.165C118.433 15.3018 118.433 15.4385 118.433 15.5752C118.433 15.6891 118.41 15.8031 118.364 15.917ZM114.058 16.6348C114.058 16.4525 114.092 16.3158 114.16 16.2246C114.251 16.1107 114.32 15.9854 114.365 15.8486C114.297 15.7803 114.229 15.7119 114.16 15.6436C114.092 15.5524 114.069 15.4271 114.092 15.2676C114.046 15.0397 114.001 14.9144 113.955 14.8916C113.91 14.8688 113.887 14.8232 113.887 14.7549C114.115 14.527 114.217 14.3789 114.194 14.3105C114.172 14.2422 114.137 14.1738 114.092 14.1055C114.046 14.0371 114.001 13.9688 113.955 13.9004C113.91 13.832 113.898 13.7409 113.921 13.627C113.784 13.5358 113.693 13.3991 113.647 13.2168C113.67 12.9661 113.625 12.818 113.511 12.7725C113.42 12.7269 113.374 12.613 113.374 12.4307C113.215 12.18 113.158 12.0205 113.203 11.9521C113.158 11.9066 113.101 11.8724 113.032 11.8496C112.987 11.804 112.952 11.7471 112.93 11.6787C112.93 11.6104 112.93 11.542 112.93 11.4736C112.952 11.3825 112.941 11.3141 112.896 11.2686C112.782 11.2458 112.679 11.2572 112.588 11.3027C112.52 11.3255 112.44 11.3483 112.349 11.3711C112.326 11.0749 112.28 10.8014 112.212 10.5508C112.007 10.3685 111.916 10.266 111.938 10.2432C111.961 10.1976 111.961 10.152 111.938 10.1064C111.847 10.0837 111.699 10.0723 111.494 10.0723C111.312 9.86719 111.198 9.77604 111.152 9.79883C111.107 9.79883 111.061 9.78743 111.016 9.76465C110.856 9.65072 110.685 9.55957 110.503 9.49121C110.298 9.37728 110.127 9.30892 109.99 9.28613C109.854 9.26335 109.74 9.27474 109.648 9.32031C109.717 9.47982 109.694 9.60514 109.58 9.69629C109.489 9.78743 109.421 9.88997 109.375 10.0039C109.375 10.2318 109.341 10.3913 109.272 10.4824C109.227 10.5508 109.181 10.6419 109.136 10.7559C109.09 10.847 109.079 10.9382 109.102 11.0293C109.124 11.1204 109.159 11.2002 109.204 11.2686C109.25 11.4964 109.295 11.6331 109.341 11.6787C109.409 11.7243 109.466 11.7926 109.512 11.8838C109.535 11.9521 109.535 12.0205 109.512 12.0889C109.489 12.1572 109.489 12.2484 109.512 12.3623C109.603 12.613 109.637 12.7611 109.614 12.8066C109.614 12.8294 109.614 12.875 109.614 12.9434C109.683 13.1257 109.66 13.2852 109.546 13.4219C109.455 13.5358 109.398 13.6839 109.375 13.8662C109.512 14.0029 109.591 14.1169 109.614 14.208C109.637 14.3219 109.614 14.4359 109.546 14.5498C109.478 14.641 109.432 14.7321 109.409 14.8232C109.455 14.8916 109.478 15.0055 109.478 15.165C109.5 15.3018 109.489 15.4157 109.443 15.5068C109.466 15.7347 109.455 15.8942 109.409 15.9854C109.432 16.0537 109.432 16.1221 109.409 16.1904C109.386 16.2588 109.386 16.3499 109.409 16.4639C109.364 16.6462 109.307 16.7943 109.238 16.9082C109.17 17.0221 109.124 17.1589 109.102 17.3184C109.17 17.4323 109.25 17.5348 109.341 17.626C109.455 17.6943 109.489 17.8538 109.443 18.1045C109.512 18.2868 109.523 18.4235 109.478 18.5146C109.546 18.6286 109.557 18.7767 109.512 18.959C109.466 19.1413 109.5 19.2894 109.614 19.4033C109.546 19.5173 109.478 19.6312 109.409 19.7451C109.364 19.8363 109.318 19.9388 109.272 20.0527C109.386 20.235 109.466 20.4629 109.512 20.7363C109.557 20.987 109.523 21.2035 109.409 21.3857C109.455 21.5908 109.466 21.7161 109.443 21.7617C109.443 21.8073 109.466 21.8529 109.512 21.8984C109.466 22.0352 109.421 22.1719 109.375 22.3086C109.352 22.4225 109.318 22.5479 109.272 22.6846C109.341 22.7757 109.398 22.9694 109.443 23.2656C109.671 23.2428 109.797 23.2542 109.819 23.2998C109.842 23.3226 109.899 23.334 109.99 23.334C110.081 23.3568 110.161 23.3226 110.229 23.2314C110.321 23.1403 110.423 23.1061 110.537 23.1289C110.674 22.9922 110.765 22.9124 110.811 22.8896C110.856 22.8441 110.913 22.8099 110.981 22.7871C111.232 22.6732 111.357 22.639 111.357 22.6846C111.38 22.7301 111.414 22.7757 111.46 22.8213C111.779 22.7529 111.938 22.5592 111.938 22.2402C112.098 22.1035 112.212 22.0124 112.28 21.9668C112.349 21.9212 112.406 21.8529 112.451 21.7617C112.702 21.3516 112.941 21.0895 113.169 20.9756C113.146 20.8844 113.123 20.8161 113.101 20.7705C113.078 20.7021 113.066 20.6224 113.066 20.5312C113.203 20.4173 113.328 20.3262 113.442 20.2578C113.556 20.1667 113.647 20.0641 113.716 19.9502C113.647 19.7451 113.647 19.5173 113.716 19.2666C113.83 19.0387 113.898 18.8792 113.921 18.7881C113.944 18.6969 113.955 18.5944 113.955 18.4805C114.069 18.2754 114.115 18.1387 114.092 18.0703C114.069 18.002 114.069 17.9108 114.092 17.7969C114.206 17.5234 114.274 17.3639 114.297 17.3184C114.342 17.2728 114.354 17.2044 114.331 17.1133C114.285 17.0221 114.24 16.9538 114.194 16.9082C114.149 16.8398 114.103 16.7487 114.058 16.6348Z" fill="#C8AEAE"/>
</svg>
