<svg width="31" height="29" viewBox="0 0 31 29" fill="none" xmlns="http://www.w3.org/2000/svg">
<ellipse cx="15.4099" cy="14.6667" rx="5.35684" ry="5.11905" fill="#EEB31C"/>
<path d="M15.3333 0.333344L16.7251 7.46345H13.9416L15.3333 0.333344Z" fill="#EEB31C"/>
<path d="M15.3333 29L13.9416 21.8699H16.7251L15.3333 29Z" fill="#EEB31C"/>
<path d="M0.334203 14.6743L7.79475 13.3406L7.79627 16.0006L0.334203 14.6743Z" fill="#EEB31C"/>
<path d="M30.3325 14.659L22.8719 15.9928L22.8704 13.3328L30.3325 14.659Z" fill="#EEB31C"/>
<path d="M9.1238 27.714L10.9459 20.673L13.4796 21.7742L9.1238 27.714Z" fill="#EEB31C"/>
<path d="M21.5429 1.61933L19.7208 8.66031L17.1871 7.55912L21.5429 1.61933Z" fill="#EEB31C"/>
<path d="M4.62818 24.7062L8.97862 18.7628L10.9283 20.6613L4.62818 24.7062Z" fill="#EEB31C"/>
<path d="M26.0385 4.6271L21.688 10.5705L19.7384 8.67205L26.0385 4.6271Z" fill="#EEB31C"/>
<path d="M1.36701 19.8934L7.80703 16.055L8.82205 18.5318L1.36701 19.8934Z" fill="#EEB31C"/>
<path d="M29.2996 9.43989L22.8596 13.2783L21.8446 10.8016L29.2996 9.43989Z" fill="#EEB31C"/>
<path d="M1.40041 9.3591L8.84668 10.7639L7.81597 13.2348L1.40041 9.3591Z" fill="#EEB31C"/>
<path d="M29.2662 19.9742L21.82 18.5694L22.8507 16.0985L29.2662 19.9742Z" fill="#EEB31C"/>
<path d="M4.16148 5.10273L10.6476 8.86969L8.79027 10.8509L4.16148 5.10273Z" fill="#EEB31C"/>
<path d="M26.5052 24.2306L20.0191 20.4637L21.8764 18.4824L26.5052 24.2306Z" fill="#EEB31C"/>
<path d="M8.88077 1.72746L13.347 7.59191L10.8342 8.73621L8.88077 1.72746Z" fill="#EEB31C"/>
<path d="M21.7859 27.6059L17.3197 21.7414L19.8324 20.5971L21.7859 27.6059Z" fill="#EEB31C"/>
</svg>
